<svg fill="none" height="358" viewBox="0 0 1440 358" width="1440" xmlns="http://www.w3.org/2000/svg"><path d="m1449.9 0c.42 0 .84.419.84.838v4.606h28.91c.42 0 .84.419.84.838v23.452l1.68 3.35v11.307h140.37c5.84.157 11.989 1.111 17.2 3.935 14.433 5.85 23.058 20.187 23.44 35.432-185.22 133.653-190.682 131.148-196.93 131.499-14.25 1.257-25.14 12.145-26.4 26.384v4.188h1.26c.41 0 .83.419.83.837 0 .419-1.25.419-2.09.419h-1.26v57.793c0 .419-.42.838-.84.838h-12.99v.837l1.26-.419c.42 0 .84.419 1.26.838l.84 2.094c2.09 6.282 7.96 10.051 14.24 9.213l-.84-4.188c.292-.699.109-.461.42-.799v-.038l.042-.008.378-.411 3.77-.838-2.51-14.238.42-.419v-.419h.42l10.05-1.675-.41-2.094.41-.419h.42c.42 0 .84.419.84.838l.42 1.675 17.18-2.932c.42 0 .84.419 1.26.838l1.67 9.213v89.202c-.42 0-.42 0-.84.419l-1.725 1.382.039 1.408c1.248-.721.66-.566 1.686-.696 20.96 20.52 18.86 12.145 17.18 3.769v-.838l-16.714-.845-.466.427-1.67 2.094c-3.383 20.45-.41 10.151-.089-.412l-.331.412c-3.77 19.264-1.26 7.957-1.26-3.351 0-2.931-.42-6.282-.84-9.632l-2.092-.21-1.258.21c.42 2.932.84 6.282.84 9.632-4.19 24.29-.42 12.564-.42 0 0-3.35-.42-6.281-.84-9.632l-.36.06c.418 2.898.684 5.809.78 8.735-5.03 23.871-1.67 12.145-1.67.418 0-2.931-.42-5.444-.84-8.794l-1.673.209-1.257.21c.41 2.931.83 5.863.83 8.794-6.28 24.29-2.09 12.145-2.09-.419 0-2.512 0-5.025-.42-7.957l-3.35.419c.42 2.932.42 5.026.42 7.538-.054 2.523.018 1.674-.058 2.555-.003.121 0 .015-.028.319l-39.724 15.066-2.1-.769c-.632.651-1.417 1.116-2.09 1.718-32.185.406-32.797-.192-33.52-.628l-2.1-1.928c-1.567-1.638-.881-.832-2.09-2.39l-2.1-3.473c-.42-.837-.83-1.675-.83-2.094l-1.26.419c-16.76 32.666-25.14 19.264-28.08 4.607l-2.477.309c9.277 24.43 2.581 12.865-.721.09l-.152.019c7.96 28.059.42 15.077-2.09.419l-2.879.36c8.806 24.012 2.506 12.586-.423.053l-.048.006-29.667.501-1.343.337c-9.22-1.675-12.15-12.983-16.34-23.871-1.26-.419-2.94-.419-4.19-.419-1.669.017-3.313.336-4.946.657 8.807 42.908 5.468 20.722-2.16.244-1.898.348-2.892.348-5.113.522-.554.048-.024.004-1.588-.165l-.023-.002c-1.811.016-3.482-.736-5.03-1.616v10.83h-.84c-.42 0-.84-.419-.84-.838v-10.47c-.83-.418-2.09-1.256-3.35-1.675-2.51-1.256-5.44-2.931-8.8-5.025-.42 0-.42 0-.83-.419-.42 0-.42-.419-1.26-.419-56.499 9.42-56.254-12.88-56.15-35.178h-.42v-.838s0-.418.42-.418v-17.171h-.84c-3.35 0-5.86-2.513-6.28-5.863v-5.025l.42-.419v-.419h10.05v-3.35c0-.419.42-.838.84-.838h11.31v-2.512h.84c.42 0 .84.418.84.837v1.675h9.22c.42 0 .42.419.42.419v.183c.422.422.31.188.42.655v3.35h5.44v-78.732c-37.71 33.503-64.52 76.638-77.93 125.217h12.15v-5.863h.84c.42 0 .83.419.83.838v5.025h5.87c4.61 1.676 8.38 5.026 9.64 9.633.42 1.256.42 2.512.84 3.769h3.35v.837c0 .419-.42.838-.84.838h-2.51c-.42 6.282-4.19 11.307-10.06 13.401h-6.29l-183.256 6.971-202.724 8.091c2.233 5.361 3.126 10.722 3.126 16.53 0 10.722-4.465 20.55-12.057 28.145l9.824 10.275-.446.893c0 .447 0 .447-.447.447h-.446l-.447-.447-9.378-9.828c-8.038 7.148-18.309 11.168-29.027 10.722-5.359-.447-10.271-1.341-15.183-3.574l-123.254-80.86c0-1.787.446-3.574.446-5.361l-30.366-20.104c-1.787 3.574-4.466 6.701-8.039 8.935 0 177.803-1.339 180.484-3.572 182.271.863 6.996-.95 2.737-4.138-.566 3.708-.366 5.602-3.722 5.924-7.029v-173.782c-2.68 1.34-5.359 2.233-8.038 2.233v9.829h-.893c-.447 0-.894-.447-.894-.894v-8.935c-8.038-.446-15.183-5.361-18.309-12.955h-69.665v184.504h73.684c2.422.028 4.885.409 7.085 1.461 4.3.37 8.158 2.514 11.106 5.568l-1.221.119h-1.786c-2.17-2.654-5.075-4.242-8.099-5.687l-1.279-.121v9.382c-5.823 1.004-3.796.394-1.787 0v-9.382h-72.344l-7.146 1.34-449.25-172.442c-6.252-6.254-9.825-14.296-10.718-22.784l-8.485.447v-.893c0-.894 0-1.341.893-.894l7.592-.447c-.447-8.934 2.679-16.976 8.485-23.677l-1.34-20.997v-.893c3.126-8.935 10.718-15.636 20.096-17.423l-18.31-4.021c-4.019-.446-7.591-3.127-9.378-7.148h-10.271v2.234h.447c.446 0 .893.447.893.894v6.254c0 .447-.447.893-.893.893h-5.359v11.169h-.893c-.447 0-.893-.447-.893-.894v-10.721h-6.252c-.447 0-.894-.447-.894-.894l.001-6.254c-.001-.447.446-.894.893-.894h.446v-2.233c-1.786 0-3.126-.894-4.019-2.234-.447-1.34-.893-2.681-.447-4.021 0-.893.894-1.787 1.787-2.68v-4.914h-3.573c-.446 0-.893-.447-.893-.894v-16.529c0-.447.447-.894.893-.894h2.233v-2.68h-2.233c-.446 0-.893-.447-.893-.894v-6.701c0-.447.447-.893.893-.893h2.233v-3.127h-2.233c-.446 0-.893-.447-.893-.894v-13.849h-17.416v16.083c0 .447-.447.893-.893.893h-8.932v5.808h2.233c.447 0 .893.447.893.893v9.382c0 2.68-2.233 4.914-4.912 4.914h-8.485v15.189h-.893c-.447 0-.893-.446-.893-.893v-15.189h-8.485c-2.68 0-4.912-2.234-4.912-4.915v-9.381c0-.447.446-.894.893-.894h2.233v-5.807h-8.932c-.446 0-.893-.447-.893-.894v-41.547h-22.329v-.893c0-.447.447-.894.894-.894h21.435v-46.907c0-.447.447-.894.893-.894h1.34v-2.68h-4.466c-.446 0-.893-.447-.893-.894v-8.041c0-.447.447-.894.893-.894h22.776v-16.53h.893c.446.001.893.448.893.894v15.636h22.775c.446 0 .893.447.893.894v8.041c0 .447-.447.894-.893.894h-4.466v2.68h.893c.447 0 .893.447.893.894l.001 20.996h17.416v-6.701c0-.446.446-.893.893-.893h6.252l1.34-1.787h-7.592c-.447 0-.893-.447-.893-.894v-5.361c0-4.02 3.126-7.147 7.145-7.147h12.057c.893-4.915 5.359-8.488 10.718-8.042h5.805c1.787 0 3.126-1.34 3.126-3.127v-18.763c0-4.021 3.126-7.148 7.145-7.148h.893v-26.358h-4.019c-.446 0-.893-.446-.893-.893v-8.489h-.446l.446-.446v-.894l.447-.447 5.359-5.36h20.989v-4.915h.893c.446.001.893.447.893.894v4.467h20.989l.446.447 5.359 5.361v.893h-.893v8.488c0 .448-.447.894-.893.894h-4.019v26.358h.893c4.019 0 7.145 3.127 7.145 7.148v18.763c0 1.787 1.34 3.127 3.126 3.127h5.805c4.913-.446 9.825 3.127 10.718 8.042h8.932v-23.231h.893c.446 0 .893.447.893.894v22.337h1.34c4.019 0 7.145 3.127 7.145 7.147v2.681c0 .447-.447.893-.893.893h-2.68v1.787h7.145v-19.656c0-1.787 1.34-3.127 3.126-3.127h6.252c2.68 0 4.913-2.234 4.913-4.915v-35.739c0-4.021 3.126-7.148 7.145-7.148h7.145c2.679 0 4.912-2.234 4.912-4.914v-11.616h-.446l.446-.446v-.894l.447-.447 4.465-4.467h9.378v-4.467h.894c.446 0 .893.447.893.893v4.021h9.824l.447.447 4.019 4.02v.447l.447.447h-.447v11.615c0 2.681 2.233 4.914 4.912 4.914h7.145c4.02 0 7.146 3.128 7.146 7.148v35.74c0 2.68 2.232 4.914 4.912 4.914h6.252c1.786 0 3.126 1.34 3.126 3.127v15.636h11.611c.446 0 .893.447.893.893v4.021h5.359c.446 0 .893.447.893.894v9.381h11.611v.894c0 .446-.447.893-.893.893h-11.165v8.041l7.592 4.468v1.787h25.901l.447-.447c.893-1.34 3.126-1.787 4.912-.447l.447.447v5.808h12.95v.893c0 .447-.446.894-.893.894h-12.057v6.254c-.447.447-.894.894-1.34.894-1.786.446-3.126-.447-4.019-1.787h-25.901v1.34c-.447.447-.447.447-.447.447l-7.145 4.02v7.595h12.057v.893c0 .447-.446.894-.893.894h-11.164v9.381c0 .447-.447.894-.893.894h-5.359v25.911h38.405c8.038 0 14.737 6.701 14.737 14.742v48.248l57.161-34.845h-14.737c-.446 0-.893-.447-.893-.894s.447-.893.893-.893h17.863l3.126-1.787 18.31-38.867h-12.951v-.893c0-.447.447-.894.893-.894h12.951l3.572-7.148c1.34-2.233 2.68-4.02 4.912-5.807v-23.678c0-7.594 6.253-13.849 13.844-13.849h79.49v-39.76h.893c.447 0 .893.447.893.894v38.866h79.937c7.591 0 13.843 6.255 13.843 13.849v23.678c2.233 1.34 3.573 3.574 4.913 5.807l3.572 7.148h13.844v.894c0 .446-.447.893-.893.893h-12.058l19.203 40.654h20.096c.446 0 .893.446.893.893s-.447.894-.893.894h-17.417l64.753 39.76 4.912-4.915c8.932-8.934 20.989-15.189 33.493-16.976l188.453-28.145c12.504-1.786 25.008 0 36.173 5.808l62.073 31.272 9.378.447.447-12.956c0-.446.446-.893.893-.893l28.131.893.45-13.849h.89c.45 0 .9.447.9.894l-.45 12.955 28.13.894c.45 0 .9.446.9.893l-.45 12.956 11.61.446c.45 0 .89.447.89.894l-.44 12.955h2.23c.45 0 .89.447.89.894v6.701c0 .447-.44.894-.89.894l-9.38-.447-.44 12.509 25.9 12.955c5.8 2.68 11.16 6.701 15.63 11.169l.44.446 10.82 12.657v-86.15c0-.419.42-.837.83-.837h17.6v-7.12h.84c.42 0 .84.419.84.838v6.282h18.44v.418l.41.419v29.315c18.86-42.297 48.19-79.151 85.9-106.372.42-3.769 1.26-7.538 2.94-11.307.41-.838.41-1.675.83-2.094l.42-.419c1.68-3.769 3.77-7.119 6.29-10.051l69.97-113.073.42-.419c7.54-8.794 18.44-13.819 30.17-13.819l80.87-.001v-10.888l1.68-3.351v-23.871c0-.418.42-.837.83-.837h28.92v-5.444zm-1101.04 259.01h-14.852l-109.857 67.458 59.394 55.396 13.938-7.727 52.601-29.353.053.164-52.654 29.189-13.045 7.28-10.718 10.275 184.434 139.83v-184.504h.447v-9.829h-67.879v3.128h12.504v.893c0 .447-.446.894-.893.894h-12.057c-.447 1.34-.447 3.127-.447 4.914h-1.34c-2.232 6.701-8.038 11.168-14.736 12.509-.894.446-2.233.446-3.126.446v9.829h-.894c-.446 0-.893-.447-.893-.894v-8.935c-3.572-.446-7.145-1.34-10.271-3.574-4.163-2.732-6.912-6.77-8.432-11.451l3.52-1.951h-17.416v-.893c0-.447.446-.894.893-.894h20.095l11.611-6.701v-15.636c-.446.447-.893.894-1.339 1.34h-.447l-9.378 3.128v3.573h-.893c-.447 0-.893-.446-.893-.893v-2.234l-13.398 4.468c-8.484 2.233-16.969 2.68-25.454.893h-.447l-21.435-5.807v3.573h-.893c-.447 0-.893-.446-.893-.893v-3.127l-8.932-2.681c-3.126-2.233-5.359-5.807-5.359-9.828h-7.591v-.893c0-.447.446-.894.893-.894h6.698c0-4.467 1.787-8.488 4.913-11.168h.446l8.932-2.681v-3.127h.893c.446 0 .893.447.893.893v1.787l21.435-6.254c8.485-1.34 17.417-1.34 25.455.893h.446l10.718 3.574c-4.466-5.807-7.145-12.955-7.145-20.55-.054-4.486 1.255-8.792 2.795-12.955zm-181.542 100.919c-12.529.348-23.021 4.623-32.928 12.106 91.994 56.736 92.887 33.953 82.169 16.083l-4.465 4.914c.893 2.234 1.339 4.914 1.339 7.148v.447l-.446.446c0 .447-.447.447-.447.447h-.446c-.447 0-.894-.447-.894-.893 0-7.595-3.572-14.296-8.931-19.657l-115.215 73.266v-.894l.446-.447h.447c.446 0 .893.447.893.447l112.089-74.159c-4.912-4.021-11.164-6.254-17.416-6.701-.447 0-.893-.447-.893-.893 0-.447.446-.894.893-.894 2.233 0 4.019.447 6.252.894l4.019-4.915c-5.762-3.261-12.096-5.417-18.669-6.297-2.58-.345-5.198-.299-7.797-.448zm442.224 16.574 93.78 83.54c-1.786-1.34-4.019-2.68-5.805-4.914l-73.238-67.011.447-.893.446-.447zm-338.501 19.21-2.233 1.787zm-4.019 3.127-4.019 3.574v.446l-66.539 62.991zm435.854 58.523 19.202.893zm123.253-.894 3.573 4.468zm-121.467-8.041-5.359 4.914 1.786 1.787 19.65.894-8.039-7.148zm32.6-31.272-28.134 26.805 3.572 3.127c6.699 5.361 14.737 8.041 23.222 8.488 10.271 0 20.096-3.574 27.687-10.275zm83.062 33.059 3.573 4.467 27.687-3.573zm-56.715-179.143-74.577 11.168c-11.164 1.787-21.882 7.148-29.92 15.19l-39.299 39.313c-9.824 10.275-15.63 23.677-15.63 37.973h2.68c0-13.849 4.912-26.358 14.737-36.186l39.298-39.314c7.592-7.594 17.863-12.508 28.581-14.295l74.13-11.169zm.447-4.468-75.024 11.169c-12.057 1.787-23.668 7.594-32.6 16.529l-39.298 39.314c-10.718 10.721-16.97 25.464-16.97 41.1h2.68c0-14.743 5.359-28.592 16.076-39.313l39.299-39.314c8.038-8.488 19.202-13.849 30.813-15.636l74.577-11.168h.447zm88.868 167.528-7.145 6.255.446.446-.446.447c.446.447.446.447.893.894h9.378c0-.447 0-.447 0-.447l-.447-.447h.447l.446-2.234c0-.446 0-.893-.446-1.34zm-150.941 14.296h-7.592c1.34 1.34 2.233 2.68 3.572 4.021zm113.429-4.914 3.572 4.467 32.153.447-4.019-4.467h-4.912l-3.573 3.574c-.893.446-1.339.446-1.786.446-.893 0-1.34-.446-1.786-.893l-2.68-3.127zm393.119-67.845 38.149 1.659c-1.107-.105-.463-.023-1.926-.295l-.584.295h-2.93c-2.1.419-3.78.838-5.45 1.257-4.19.837-6.71 1.256-9.22 1.256-2.09 0-4.61-.837-6.7-1.675-1.26-.419-2.52-.838-3.78-1.256-2.455-.75-4.999-1.134-7.559-1.24zm-1143.806 64.718v2.68l5.359 4.468 1.34-1.341zm-8.931-93.816c-1.34 3.127-2.68 5.808-4.913 8.041-4.019 4.468-9.824 7.595-16.076 8.042l2.233 54.055-.447.447h-.447c-.446 0-.893-.447-.893-.893l-2.679-53.609c-6.252.446-12.504-2.234-16.97-6.255-2.233-2.233-4.019-4.467-5.359-7.594l44.211 83.987 1.34-1.34.893-.894 5.359-6.254h.893l.446.447 3.573 2.68 2.233-2.68h.446c.447 0 .893.447.893.447l3.126 2.233 8.485-9.381.447.446-24.562-24.57zm652.44 98.283-1.786 1.787h4.019c-.893-.447-1.786-1.34-2.233-1.787zm-19.202-5.808c.893 2.681 2.233 4.915 4.019 7.148l10.718.447 3.126-3.127c-.893-1.34-2.233-2.681-3.126-4.021zm148.708-4.02-2.679 2.68-.447.447-3.126 2.68 2.68 3.128 1.786 2.233h.447l6.252-5.807zm-766.763-.894-4.466 5.361 7.145 6.255 4.466-5.808-3.126-2.68-.446-.447s0 0-.447-.447l-1.34-.447v-.446zm607.337-55.396 12.058 66.565c-5.806-9.382-8.932-20.103-8.485-31.272 0-8.488 2.679-17.423 6.698-25.018zm180.415 60.31v.447l-.446 2.234 7.591-.447zm-91.994-49.588-27.687 26.805 26.348 27.698c7.145-7.148 11.164-16.53 11.611-26.805.446-8.935-2.68-17.87-8.039-25.017zm42.871 48.248 3.573 4.468 16.97.446-3.573-4.467zm-100.032-49.588c-2.233 2.234-4.019 4.914-5.805 7.595v.446h-.447c-1.339 2.234-2.233 4.914-3.126 7.595v.447c-1.339 3.574-1.786 7.148-1.786 10.275-.447 4.914.447 9.828 2.233 14.742v.447c1.786 4.914 4.466 8.935 7.591 12.509l27.688-26.358zm147.815-41.547-2.232 75.946c0 1.787.446 3.574 1.786 4.914l12.504 14.296 18.309-16.083-1.339-1.787c-.894-1.34-1.34-2.68-1.34-4.467l6.252-71.925c-.893 1.786-2.233 3.127-3.573 4.467-3.126 3.127-7.591 5.361-12.057 5.361l-1.786 60.31h-.894c-.446 0-.893-.447-.893-.894l1.787-59.416c-4.913 0-9.378-2.234-12.951-5.808-1.786-1.34-2.679-3.127-3.573-4.914zm-799.809 87.115-1.34 1.34 6.252 5.807.893-.893v-.894zm172.376-59.864-11.61 12.509 42.424 16.083zm543.478-29.485v.894h-22.329l28.134 33.505c1.34 1.341 2.68 2.681 4.02 4.468l48.229 57.183 2.68-2.234-2.233-2.234c-.447-.446-.447-.893 0-1.34l3.126-3.127-4.019-4.468.446-.893c.447-.447.893-.447 1.34 0l3.573 4.021 3.126-3.128c.446-.446.893-.446 1.339 0l1.787 2.234 2.232-2.234-13.843-14.295v-.894l.446-.446 3.126-3.128zm597.696 55.233-.839.094-1.671.279zm-524.905 28.308-2.679 2.68-.447.447-3.572 2.681 4.912 5.36 6.698-6.254zm8.485 5.361 2.679 3.127.447.447 5.805 1.787-3.126-3.574zm-169.251-2.681c.894 2.681 1.787 4.915 2.68 7.148l13.844.447c-1.34-2.234-2.68-4.914-3.573-7.148zm-622.52-3.127-4.466 4.914 6.699 5.808 4.465-5.361zm20.095-8.041-.446.447-7.592 8.934 3.573 3.128c.446.446.446.893 0 1.34l-1.787 2.234 2.68 2.233 9.824-12.062zm1284.326-18.61-2.51.419zm-563.113 30.672 3.573 4.467 16.97.447-3.573-4.467zm31.707.447-1.34 1.34 1.34 1.34 1.34-1.34zm527.216-30.7-2.52.419zm-1289.514 29.806-1.339 1.34 1.339 1.341 1.34-1.341zm764.977-1.34-1.339 1.34 1.339 1.34 1.34-1.34zm11.611-2.234c0 .447.447 1.34.893 1.787l1.34 1.34 5.806 1.787-2.68-3.127c-.447 0-.446-.447-.446-.447zm590.446-37.958-1.68.279zm-1369.713 38.852-1.34 1.787 1.34.893 1.34-1.34zm727.912-3.127 3.572 4.467 16.97.447-3.573-4.468zm560.511-23.161h-2.52zm83.38-12.982-.42.046zm-563.509-132.279-112.536 16.976v4.021c4.466.447 7.592 3.574 7.592 8.041v41.1h.893c4.019 0 8.039 1.787 10.718 4.468l61.627 64.331 2.679-2.681.893-33.059-1.333-1.591.44-19.852h-7.591c.004 5.296 1.462 10.421 4.002 15.038 2.626 4.276 1.436 2.773 3.149 4.814l-.006.251c-2.212-3.115-1.148-1.436-3.143-5.065-3.241-4.998-4.182-10.999-4.449-16.825l-8.485-.447v-.893c0-.447.447-.894.893-.894l7.592.447c.447-8.935 4.019-16.976 10.718-23.231 6.252-6.254 14.737-9.381 23.668-9.381l.893-32.612h.893l.447.446v.894l-.893 31.718c8.931.447 16.969 4.021 23.221 10.722 6.253 6.255 9.378 14.743 9.378 23.677l8.039.447.446.447v.447c0 .446-.446.893-.893.893l-7.592-.447c-.446 9.829-5.359 18.764-12.95 25.018l-4.912 55.843c0 1.34.446 2.68 1.339 3.574l79.937-56.737.446-.446c.893-.447 1.786-.447 2.68-.894l1.786-58.076-9.378-.447c-.447 0-.893-.447-.893-.893v-6.702c0-.446.446-.893.893-.893h2.233v-2.68l-64.307-32.166c-8.931-4.467-19.202-6.254-28.134-6.701zm-195.151 164.848c.446 2.233.893 4.467 1.339 7.147l12.951.447c-.893-2.234-1.34-4.914-1.786-7.148zm647.2-15.399c4.849 16.968 2.977 10.397 1.68 3.769zm113.56-17.589-1.68.278zm-553.551 37.008-.893.447 1.786 1.787.893-.447zm545.171-35.752-2.52.419zm-586.702 32.625v2.681l3.572.893c0-.893-.446-1.787-.446-2.68zm-1.34-25.017-14.737 14.295 13.844 14.296zm-589.028-159.934h-39.745v19.21c.447.447.447.894.893 1.34.447 1.34.894 3.127.447 4.468-.447 1.34-.893 2.233-2.233 3.127v2.68h.447c.446 0 .893.447.893.894v6.254c0 .447-.447.894-.893.894h-5.359v11.168h-.893c-.447 0-.893-.447-.893-.893v-10.722h-5.359c-.447 0-.893-.447-.893-.894v-6.254c0-.447.446-.893.893-.893h.446v-2.234h-10.271c-1.786 4.021-5.359 6.701-9.378 7.148l-54.482 11.168c-1.786 0-3.126.447-4.465 1.787-1.34.894-1.787 2.681-1.787 4.468v1.34c1.787.447 3.126 1.787 3.126 3.574 0 .893 0 2.234-.893 3.127s-1.786 1.787-3.126 1.787h-4.912v8.935h2.233c.446 0 .893.447.893.893v7.148l10.271 13.402v5.361l-.446.447c-9.825 3.574-20.096 5.361-30.814 5.808v4.02c0 .447-.446.894-.893.894h-3.573v20.55l-2.232.893h-.894v-20.55h-3.572c-.447 0-.893-.446-.893-.893v-4.021c-8.485-.447-16.97-1.787-25.008-4.021 0 8.489-3.126 16.53-8.485 22.784l1.786 33.059 30.367 30.379 42.871-53.163.446-.446 49.123-60.757v-.447h.447l9.824-12.062h.894l.893.447 28.134 26.357 44.21-27.251v-53.162c0-4.021-3.126-7.148-7.145-7.148zm1095.78 165.308-2.52.419zm-561.234 16.069 3.573 4.468 16.97.446-3.573-4.467zm92.887 1.34c0 .894 0 1.787 1.34 2.234v.447l2.233.893c-.447-.893-.447-1.787-.447-2.68zm412.617-43.792-.42.419c-.42.418-.42.837-.42.837l2.1 24.709 2.09-4.607zm149.59 11.726-2.1.349zm-16.34 2.094-2.52.837zm-384.65-55.802-1.79 57.63 16.97 16.082 31.74-38.117-13.43-15.938c-3.57-3.574-8.04-6.701-12.51-8.935zm-198.282 83.541v2.68l3.126.894v-2.681zm-166.125-4.915v6.702l12.504.446v-6.701zm744.867-21.987-2.52.419zm-541.677 24.668-.446 2.68 3.126.894.446-2.681zm-98.246-3.127 3.573 4.467 16.97.447-3.573-4.468zm224.183-44.228 48.67 40.207-30.36-28.591c-5.36-4.914-11.62-8.935-18.31-11.616zm-162.556 45.121v2.681l3.126.893v-2.68zm500.776-10.289-2.52.419v6.282zm101.82-15.914-2.52.419c.84 26.384 1.68 24.29 2.52 21.777zm-52.38 8.795-19.69 2.513c.42 4.606 2.09 8.375 5.03 11.726 20.95 5.025 25.56 2.931 29.33-.419zm23.89-4.188h-.42c.42 3.769-.42 7.957-2.1 11.307v10.47zm-95.12 14.658-4.61.837-.84 2.513v.419h-.42v.418l-.84-.418h-.41v-.419l-1.68-2.094-2.1.419-1.25 2.094-.42.418v-.418l-.84-.419v-.419l-1.68-1.675-4.863.811-1.417 2.12 20.53 1.676h.42c.42 0 .84 0 1.68.418-.42-2.094-.84-4.188-1.26-6.281zm-441.474 4.705-.446 2.68 3.126.893.446-2.68zm-149.155-34.846c-10.271-.447-20.095 3.127-27.24 9.828l26.347 28.145 27.688-26.358c-7.145-7.148-16.523-11.169-26.795-11.615zm562.969-47.754h-12.57v56.955l7.96-8.794c0-.838.42-1.676.84-2.094l1.68-2.094-2.93-19.265c-2.1-1.256-3.36-3.35-3.36-5.444l-2.51-17.17.42-.419s.42-.419.84-.419zm159.253 81.661-.794 2.671c.663-2.023.419-1.127.794-2.671zm-610.579-1.295v2.68l3.126.894v-2.681zm570.326-2.471c-.42.837-1.25 2.093-2.09 2.512-.42.419-.42.419-.42.838l2.51 2.094zm-736.004-1.997c-.446 2.234-.893 4.468-.893 6.702l12.058.446c.446-2.233.893-4.467 1.339-6.701zm98.693 1.787 3.572 4.468 16.97.447-3.573-4.468zm104.497.447-.446 2.681 3.126.893.446-2.68zm426.391 1.018-.007.001 1.68 1.675zm-.767-.348-3.84.768-.261.39 4.451-.809zm14.59-13.052-.42.418c-2.93 3.351-7.12 5.445-11.73 5.863l-9.22 1.676.84 5.863h.84l2.93-3.351h.84l2.458 2.46 2.572-.366.84-2.512v-.419l.41-.419v-.419l.42.419h.42l1.68 2.094 2.09-.419 1.26-2.931h.84l3.77 1.675c-.42-3.351-.84-6.701-.84-9.632zm94.28-2.513-19.69 3.35 13.82 12.983.42-.419c3.77-4.188 5.45-10.051 5.45-15.914zm-72.91-45.648c-10.05 10.888-16.76 25.127-18.44 40.204l-3.77 5.444c-2.51 2.513-5.86 4.188-9.21 4.607h-.42l-10.884 1.672-.016.003h-.84c-.41-.419 0-.419 0-.419h.042l-.452-.419-2.1 4.607-.089 6.201 2.599-.338-1.25-6.701.42-.419s.42-.418.83-.418l10.9-1.675c3.77-.419 7.54-2.513 10.47-5.445l2.1-2.094h.84l.42-.418v3.35c0 2.931.41 6.282.83 9.632l3.36-.419c-.84-2.931-.84-5.863-.84-8.794 0-16.752 6.28-33.085 18.02-45.648zm-499.096 58.309v2.681l3.126.893v-2.68zm612.355-4.299-1.152 7.5c.667-2.448.949-4.978 1.152-7.499zm-150.969 6.296-.84.837h1.26zm-584.639-86.877-83.509 83.54 87.528-78.626zm46.443 17.422h-29.474l4.019 4.915h26.348l61.627 64.33 3.126-3.127-61.627-64.331c-.893-1.34-2.233-1.787-4.019-1.787zm605.656 61.498-2.51.418c.42 1.675 1.25 2.932 2.09 4.188.84 1.257 1.68 2.094 2.52 2.932-1.26-2.513-2.1-5.026-2.1-7.538zm-490.887 3.727-.447 2.68 3.126.894.447-2.681zm437.257 2.136v.837l1.67-.419zm-547.56-4.37 3.572 4.467 16.97.447-3.573-4.467zm72.344 0v2.68l3.126.894v-2.681zm502.866-49.654c-11.31 12.145-17.6 27.64-17.6 44.391 0 2.932.42 5.445.84 8.795l3.35-.419c-.41-2.931-.83-5.863-.83-8.376 0-15.495 5.86-30.571 16.34-41.878zm-665.418 45.187c-.893 2.233-1.786 4.467-2.233 6.701l12.951.446c.447-2.233 1.34-4.467 2.679-6.701zm669.188-41.837c-10.47 11.307-15.92 25.546-15.92 40.623 0 2.512 0 5.025.42 7.957l3.35-.419c-.42-2.932-.42-5.026-.42-7.538 0-14.239 5.45-27.64 15.09-38.11zm97.63 33.503v14.658c.42-2.513.42-5.026.42-7.538 0-2.094 0-4.607-.42-7.12zm-786.467-19.364-30.813 29.485 4.912 4.467 29.92-29.932zm95.12-37.527h-24.562l4.02 4.915h30.813c2.233 0 4.466.893 5.805 2.233l61.627 64.331 3.573-3.127-62.074-64.331c-2.232-2.68-5.358-4.021-8.931-4.021h-8.485v.894h-.893c-.447 0-.893-.447-.893-.894zm583.667 56.891c-.42 2.513-.42 5.026-.42 7.12s0 4.606.42 7.119zm4.19-14.657c-.84 2.094-1.68 4.606-2.52 6.7v22.196l2.52-.419zm-462.371 25.224-.446 2.681 3.126.893.446-2.68zm466.561-32.763c-.84 1.257-1.68 2.932-2.52 4.188v31.828l2.52-.419zm-1120.788 4.172-3.126 3.127 30.814 28.591 3.126-3.127zm1124.978-9.616c-1.26 1.257-1.68 2.094-2.52 2.932v37.691l2.52-.419zm1.25-1.675v41.879l2.52-.419v-39.366zm4.2 3.769v37.691l2.51-.419v-35.178zm-514.159 33.88v2.68l3.126.893v-2.68zm-78.15-1.787 3.572 4.467 16.97.447-3.572-4.468zm596.499-28.324v33.085l2.51-.419v-30.572zm93.85 29.315-.129 3.42c.145-1.801.073-.662.129-3.419zm-89.66-1.256v4.188h.83c-.42-1.256-.83-2.513-.83-4.188zm-484.134.265-.447 2.68 3.126.894.447-2.681zm491.254-17.854c-2.52 2.932-4.19 6.282-5.03 10.051s-.42 7.538.84 11.307l2.93-.419c-.42-5.863 1.68-11.726 5.03-16.332.42-.419.42-.419.84-.838zm-64.53-23.452-8.8 1.256-6.28.838h-.84c-.681.046-1.34-.093-1.962-.36l1.761 11.428 5.231 31.648c.42-.419.42 0 0 0l11.31-1.675c3.35-.419 6.28-2.094 8.8-4.607l3.35-4.606c.84-7.957 3.35-15.914 7.12-23.452l-1.25-4.389v.619l-.42.838c0 .419 0 .419-.42.838l-.42.837v.419l-.42.838-.42.418-.84.838h-.42l-.41.419h-.84c-.84.418-2.1.837-2.94.418-.41 0-.83-.418-1.25-.418s-.84-.419-1.26-.419c-.84 0-1.68.419-2.51.837-.84.419-1.68.838-2.52.838l-.42-.419s0 0-.42 0c-.41 0-.41-.419-.41-.419-.42-.418-.84-1.256-1.26-2.512 0-.419-.42-.838-.42-1.257-.42-.418-.42-1.256-.84-1.675-.84-1.256-1.26-2.512-1.26-3.769v-.837c.42-.838.84-1.257 1.26-2.094zm69.98 28.896-.42.419c-3.36 4.188-5.03 9.213-4.61 14.658l18.43-2.932zm-1145.572-18.416-4.466 4.468 31.26 28.591 4.912-4.467zm417.544-5.807-5.359 5.361-25.901 25.017 8.931 8.042 31.26-29.485zm192.919 33.952v2.681l3.126.893v-2.68zm-158.98-4.02c-1.339 2.233-2.679 4.467-3.572 6.701l13.844.446c1.339-2.233 3.126-4.467 4.912-6.701zm710.527-13.445-2.198.198c-.42 0-.84 0-1.67.419l2.93 19.264 20.53-2.931c-.42-4.607-2.51-8.795-5.45-12.145-2.85-2.284-6.188-3.886-9.806-4.511-1.427-.247-2.891-.196-4.336-.293zm-513.142 15.678-.447 2.681 3.126.893.447-2.68zm-120.574-1.787-.447.447.447.447c.446.893 1.339 1.34 1.786 2.233l.893.894 16.97.447-4.019-4.021zm693.592-1.136-.054.007c.461 3.294.228 1.458.662 5.511-.168-2.87-.024-1.025-.608-5.518zm-65.424-11.719c-3.35.837-6.7 2.931-9.64 5.444l12.57 11.726zm-1177.898-11.716-14.737 16.083c3.126 3.127 5.806 7.148 7.592 11.615l16.97-18.316zm795.348-45.567-1.34 48.695c6.25 2.233 12.05 5.807 16.97 10.275l.44.446 14.29 13.403 1.79-56.736zm-163.449 69.245v2.68l3.126.894v-2.681zm-600.192-34.399-8.485 8.935 31.706 29.038 8.485-8.042zm1173.851 29.556-2.1 2.094c.84 2.094 1.26 3.769 1.68 5.863h.42zm4.19-4.188-2.52 2.513v9.632l2.52-.419zm4.19-4.188-2.52 2.513v13.401l2.52-.419zm3.77-4.188-2.52 2.513v16.752l2.52-.419zm-546.957 15.62-.447 2.68 3.126.894.447-2.681zm551.147-19.389h-.42l-2.1 2.094v20.521l2.52-.419zm-67.46 3.769v18.427c0-.419 0-1.256.41-1.675.42-1.675 1.26-3.769 2.1-5.863v-8.376zm71.65-4.188h-2.52v22.196l2.52-.419zm-746.47-6.103-18.756 18.316 9.825 9.829c4.019-6.255 8.931-11.616 14.736-16.083 1.34-1.34 2.68-2.234 3.573-2.681zm577.19-29.912h-11.32v55.28h.42c2.1 1.256 3.77 1.675 5.03 2.094 2.09.418 3.77 0 5.87-.419zm170.95 36.015v21.359l2.52-.419v-17.17c-1.26-1.257-1.68-2.513-2.52-3.77zm-294.15 8.795h-12.15l19.7 12.145v-2.932zm-52.634-12.982h-2.666v.52 2.735 4.762zm350.554 11.726v13.401l2.52-.419v-6.282c-.84-2.094-1.26-4.606-2.52-6.7zm-274.45 1.675h-6.7v4.188s0 .418-.42.418l-7.55 4.188v2.932h5.87c5.03-1.675 8.38-6.282 8.8-11.726zm-474.781 4.339h-2.679c-1.786 2.234-3.573 4.468-5.359 6.702l14.737.446zm78.15 2.681h-4.019l-4.465 4.021 12.057.446zm-122.807-75.946-34.832 34.846c-8.932 8.934-14.291 20.997-14.291 33.952l17.417 11.615 24.561-23.677-2.679-3.127v-.894l6.698-6.701 1.34-.893-.447-.447-3.572 3.574h-.447c-.446 0-.893-.447-.893-.447l-3.572-3.574v-.893l.446-.447 5.359-5.361-4.019-4.467v-.894l.446-.447 12.058-11.615c.446-.447.446-.447.893-.447h.447l4.019 4.468 5.805-5.361h.893l.447.447 3.572 4.02v.894l-.446.447-3.573 3.574.447.446 1.786-1.787.893-.893 5.359-4.914h.893l.447.446 2.233 2.681 3.572-4.914zm194.705 76.839v2.681l3.126.893v-2.68zm-91.547-1.34c2.233 1.34 4.019 2.681 5.806 4.468h2.679l4.466-4.021zm-55.821-1.787 5.805 6.255c2.68-2.234 4.913-4.021 8.039-5.808zm697.111-44.152c-2.51 0-5.03 0-8.38.837l.42 3.351c2.93-.419 5.45-.419 7.54-.419 12.15 0 23.47 3.769 33.1 10.888.42 0 .42 0 .42.419 2.52 1.675 4.61 3.769 6.71 5.863l1.25-1.256h.84l.42.419.42.418v.419l-.42.419-1.26 1.256c2.52 1.257 4.19 3.769 5.87 6.282 4.19 6.282 7.12 13.401 8.38 21.358l3.35-.418c-4.61-28.478-29.75-49.836-58.66-49.836zm-122.77 46.904v2.513h-.42l2.51.837c1.26 0 2.1-.418 3.78-.418h3.77v-.419zm122.77-52.349c-2.93 0-5.87.419-9.22.838l.42 3.35c3.35-.418 5.87-.837 8.8-.837 29.75 0 55.73 22.196 60.76 51.511l3.35-.419c-5.03-30.99-32.68-54.443-64.11-54.443zm-510.891 50.937-.446 2.681 3.126.893.446-2.68zm248.171-19.527h-16.76zm124.86-31.828h-11.31v48.16c3.77 1.675 6.71 3.351 8.8 5.026.84.419 1.68.837 2.51 1.256zm134.189-4.728c-1.999.04-3.984.325-5.969.54l.42 3.35c3.35-.419 6.29-.838 9.22-.838 32.26 0 60.76 23.871 66.2 56.118l3.36-.419c-.84-4.188-1.68-7.957-2.94-11.726v-1.256l.42.419h.84l2.51 1.256c7.13.838 3.36.419 0-1.256l-.41-.419-5.45-3.769c-7.54-17.17-21.37-30.572-38.97-37.272-7.633-3.034-13.878-3.714-21.886-4.703-2.448.019-4.896-.01-7.345-.025zm-119.519 53.307v2.513l9.64 2.513v-2.513zm159.23-15.076-16.77 17.589c.42.837.84 1.675 1.26 2.094l17.18-18.008zm38.54 18.845-1.25.838 1.67-.419zm-5.44-8.794c.904 3.022 1.561 6.106 2.09 9.213l3.35-2.513h.84l.42.419 1.68 2.094 2.09-.419 4.19-.419 2.94-.418c-9.214-4.518-13.59-5.776-17.6-7.957zm-618.883 5.121v2.68l3.126.894v-2.681zm310.66 3.019c-.47-.066-.043.615.243.235.068-.09-.162-.157-.243-.235zm-418.646-5.767c4.678.421 9.097 2.111 13.313 4.088l17.863.447.893-.894c-.893-.893-1.786-1.787-2.679-2.68zm147.285.961-.447 2.68 3.126.894.447-2.681zm275.374-1.24h-4.19v4.187c2.1-.418 3.77-2.093 4.19-4.187zm230.04-6.282c-3.77.419-7.54 1.675-10.89 3.769-1.26.419-2.52 1.675-3.35 2.513l4.19 4.187c2.93-2.931 6.7-5.025 10.89-6.281zm-228.36 7.538c-.42.838-.84 1.675-1.26 2.513l1.26-.838zm266.07-16.333-16.34 16.752s.42.419.42.837c.42.419.84.838 1.26 1.257l16.34-17.171zm-155.87 13.82v2.513l9.64 2.513v-2.513zm-573.475.263c-1.339.894-2.232 2.234-3.572 3.127l.893.894 19.203.447c4.578-2.254 9.566-3.031 14.587-3.451zm528.645-28.74h-6.71c-7.54 0-14.25 5.025-16.34 12.563l-.84 2.513-.42 14.239c2.1 0 4.61.419 7.13.837 1.25.419 2.51.838 3.77 1.257 2.09.837 4.61 1.256 6.7 1.675 2.52 0 5.03-.419 8.8-1.256 1.26-.419 2.93-.838 4.61-.838v-24.709l-.42-1.675c-.84-2.931-3.35-4.606-6.28-4.606zm-1023.892 9.53-16.97 17.87c4.019.894 7.145 2.681 10.271 5.361l14.737-16.083zm910.752 6.384h-16.957l16.317 13.273h.45l.19.041zm-124.491 3.622c-6.706-.202-13.188 1.285-19.498 3.397l33.049 4.914h.44l2.24-5.361c-7.291-2.188-2.885-1.068-13.347-2.804zm-143.645 8.758v2.68l3.126.893v-2.68zm525.416-.236v3.77c.42-.838 1.25-1.676 1.67-2.094zm-134.93-.418v2.094l2.52.837c2.09 0 4.19.419 5.45.838v-1.675zm171.8-30.572v30.572c.84.837 1.68 1.675 2.51 2.512v-32.665c-.83-.419-1.67-.419-2.51-.419zm-522.988 29.439-.446 2.68 3.126.894.446-2.681zm386.808-2.218v2.513l9.64 2.513v-2.513zm119.84-.837.42 4.188c.42 0 1.25-.419 1.67-.419 1.26-.419 2.1-.419 2.94-.419 3.35 0 6.7.838 9.63 2.094-2.93-2.513-6.28-4.607-10.47-5.025-1.26-.419-2.93-.419-4.19-.419zm-683.043-1.413c-2.68 1.34-4.913 2.681-7.146 4.021l63.86 2.234c-2.233-1.787-4.466-3.128-6.698-4.468zm445.043 1.832c-2.1 0-3.77 1.675-4.19 4.187h4.19zm0-7.539h-20.11v11.726h12.57v-4.187l.41-.419 7.13-4.188zm2.09 7.539v4.187h4.19c-.42-2.093-2.09-3.769-4.19-4.187zm5.45-7.539h-5.45v2.932l7.55 4.607v4.187h6.7c0-1.256-.42-2.093-.42-3.35-1.26-3.769-4.19-7.119-8.38-8.376zm212.44-16.751c-.84.419-1.68.837-2.51 1.256v25.128l2.51 2.093zm38.55-1.675v30.152l2.51-2.512v-26.803c-1.25 0-2.09-.419-2.51-.837zm-175.99 25.127v2.513l7.97 2.094v-2.513zm-390.486.793v2.681l3.126.893v-2.68zm532.116-25.92c-.84.418-1.68.837-2.51.837v28.478c.83-.838 1.67-1.256 2.51-1.675zm-217.47 26.383c.42.838.84 1.257 1.26 2.513v-1.675zm243.45-28.058v28.477c.84.419 1.68.838 2.51 1.675v-29.734c-.83 0-1.67-.418-2.51-.418zm-254.34 27.64-1.26.837v1.675zm-932.082-10.32-3.126 3.127 9.824 9.382 3.126-3.127zm464.881-9.828-18.756 17.869 4.019 4.021 18.309-18.316zm203.19 18.316-.447 2.681 3.126.893.447-2.68zm386.361-1.938v2.513l9.64 2.513v-2.513zm110.2-23.033c-.84 0-1.68 0-2.51.419v27.221c.83-.419 1.67-.837 2.51-1.256zm33.94 2.513v24.708l2.52-2.512v-20.94zm-46.09 1.675c-.84.419-1.68.838-2.51 1.256v19.265l2.51 2.094zm-643.391-20.317-32.153 31.272 9.825 9.828c8.931-4.914 18.309-7.148 27.687-7.148 10.718 0 21.882 3.127 30.814 8.935zm673.141 14.064v27.611c.84.419 1.68.419 2.51.838v-28.059c-1.642-.069-.851.064-2.378-.381zm-163.42 23.842v2.513l7.97 2.094v-2.513zm150.01-22.614c-1.26 0-2.09 0-2.51.418v26.384c.83-.419 1.67-.419 2.51-.838zm-540.496 23.128v2.68l3.126.894v-2.681zm552.646-23.966c-.84 0-1.67 0-2.51 0v26.384h.84c.42 0 1.25.418 1.67.418zm-823.715-82.359h-12.057c2.233 4.468 3.126 8.935 3.126 13.849 0 18.317-14.737 33.059-33.047 33.059h-79.043v4.914h49.57c1.339 0 2.679 0 3.572.894l26.795 17.869 8.038 5.361v-23.23h.893c.447 0 .893.446.893.893v23.678l7.592 4.914h25.008v.893c0 .447-.447.894-.893.894h-21.436l38.405 25.017c1.34-13.402 7.592-25.464 16.97-34.846l32.6-33.059zm812.825 94.504v14.239c.84 0 1.26 0 2.09-.419zm-656.098 9.055c-6.608-.049-12.989 1.498-19.183 3.659l41.978 1.34c-5.806-2.68-12.504-4.467-19.203-4.914h-.893zm277.338-49.503v3.127l55.82 28.145c4.92 2.234 8.94 5.361 12.95 9.381l.45.447 11.2 13.255v-4.687l-9.41-10.802c-4.02-4.02-8.93-7.147-13.85-9.828zm385.46 28.303c-.84 0-1.67 0-2.51 0v25.965h2.51zm-508.265 22.179-.446 2.68 3.126.894.446-2.681zm-663.605-10.275-4.019 4.467 9.825 9.382 4.465-4.468zm-53.588-29.485-34.833 43.334c16.97-10.722 38.405-11.169 56.268-.894l11.611-12.062zm1103.108 38.102v2.512l9.64 2.513v-2.513zm-297.493-53.291-1.787 57.182c4.913-1.34 10.271-2.233 15.63-1.787 5.806 0 11.61.894 17.42 2.681l1.34-49.142-16.973-8.488zm215.363 52.034v.838zm230.46-12.982v18.426l2.52-2.512v-14.658zm-54.47 2.094c-.84.419-1.68 1.256-2.51 1.675v12.564l2.51 2.093zm-696.808-14.342-18.756 17.87 12.057 12.508 18.756-17.869-9.825-9.829zm567.328 25.23v2.513l7.97 2.094v-2.513zm-390.486.234v2.681l3.126.893v-2.68zm589.526-1.909-2.94 3.35 2.1 2.094 5.03-.418c-1.26-1.676-2.52-3.351-4.19-5.026zm-533.258-17.747h-8.931l-1.787 22.337c6.252-5.808 10.272-13.849 10.718-22.337zm-15.63 17.869-.447 2.681 3.126.893.447-2.68zm303.338-2.635v.838c.42.419.42 1.256.42 1.675l11.32 3.35v-2.512zm171.8-3.769c-.84.838-1.68 1.257-2.51 2.094v5.444l2.51 2.094zm-89.67 4.607v2.513l9.64 2.512v-2.512zm-1264.767-16.519-3.573.447c.893 5.807 3.126 10.721 7.592 14.742 4.019 3.574 9.378 5.808 15.183 5.808h.447v-3.127c-10.271 0-18.756-8.042-19.649-17.87zm41.977-2.234h-3.126c0 4.914-1.786 9.829-4.912 13.402-3.126 3.574-7.592 5.808-12.504 6.702v3.127c5.806-.894 10.718-3.127 14.737-7.595 4.019-4.467 5.805-9.828 5.805-15.636zm1375.31 11.215v11.726l2.52-2.513v-7.119c-.84-.838-1.68-1.257-2.52-2.094zm-775.564 5.315-4.466 4.467 1.787 1.787 4.465-4.467zm-440.766-4.021-3.126 3.127 7.592 7.148 3.126-3.127zm16.076-16.083-8.931 8.935 7.592 6.701 6.698-7.148c.447-.446.893-.446 1.34 0 .447.447.447.894 0 1.341l-6.699 7.147 10.272 9.382 8.484-8.935zm1012.114 21.489v2.513l7.97 2.094v-2.513zm192.33-3.35v5.863l2.1 2.094 2.93-3.35c-1.68-1.675-3.35-3.351-5.03-4.607zm-104.748-4.599.418 1.668c2.51 1.675 4.61 4.187 6.28 7.119l-.42.419 1.26 3.35c.325-.32.449-.764.728-1.116l-1.568-3.909c-1.452-3.128-4.109-5.367-6.698-7.531zm-1322.088-7.732-7.592.447c.447 7.594 3.573 14.295 8.485 19.656zm1007.466-32.612v3.127l57.61 29.038c5.36 2.681 10.27 6.255 14.29 10.275l8.462 9.833c.214-.214.075-.124.448-.211h2.51l-9.64-11.409c-4.02-4.467-9.37-8.041-14.73-10.722zm-467.561 34.846h-17.416c0 1.787.446 3.574.893 5.361v.446c3.126 6.701 9.378 11.169 16.523 11.616zm-179.075-.447h-10.718l-6.252 3.574c.893 4.467 3.572 8.488 7.592 11.168 2.679 1.787 6.252 3.128 9.378 3.128zm187.56.447h-6.699v17.423c7.145 0 13.397-4.468 16.077-11.169zm-167.911-.447h-17.416v17.87c.893 0 1.786-.447 2.679-.447 8.038-1.34 14.29-8.488 14.737-17.423zm731.677-68.188h-16.76v85.851h16.76zm18.44 0h-16.76v85.851h16.76zm87.15-75.382c-37.71 28.059-67.46 65.331-85.48 108.466v52.767h5.87c13.41-49.417 41.06-93.808 79.61-127.73zm-373.726 157.419v2.68l3.573.894v-2.681zm470.106-8.749-2.1.419 1.68 11.726 2.09-.419zm3.77-.419-2.1.419 1.68 11.726 2.09-.419zm8.618 11.726h-.238l.333.332zm-.749-1.586c.341.798.171.409.511 1.167l.166.165-.166-.583v-.001c-.457-.663-.292-.41-.511-.748zm-441.107-2.312-.447 2.68 3.126.894.447-2.681zm-827.497-16.977-7.592.447.893 20.104c4.466-5.808 6.699-12.956 6.699-20.551zm1298.445 18.362c-.42.419-.84.838-1.26.838l1.26 1.256zm-167.19-4.188v2.513l12.15 3.351c0-.838.42-1.257.84-2.094zm81.71.838v2.513l9.64 2.513v-2.513zm109.78-38.11-36.03 5.382v2.157l-.42 1.546v.129c-.42 1.675-.84 3.35-1.68 4.606v.419h-.42c-2.51 4.188-6.7 7.119-11.31 7.538l-7.328 1.099.618.577c.42.418.84.837.84 1.256 0 .837 0 1.256-.42 2.094 0 .419-.42.837-.42 1.256-.41 0-.41.419-.41.419l-.215.22c-.184.4-.117.194-.205.617l-.002.004.002-.003c-.009.089.005.046-.042.126l-.378 1.13-.201.343-.176.398-.01.117c3.718 1.984 6.478 5.04 8.347 8.774l1.287 2.888c2.427-4.255 5.47-8.086 8.773-11.683l-4.61-4.606v-.838l.42-.419.41-.418h.42l.42.418 4.61 4.188c6.71-6.7 14.25-11.726 22.63-15.495 5.45-2.513 11.31-4.188 17.6-5.025zm8.38 26.384c-.84 0-1.67.419-2.51.838l2.51 15.495zm-153.78 10.888v2.513l7.97 2.094v-2.513zm148.75-15.076c-12.15 1.675-23.88 7.538-32.68 16.752l2.51 2.512c8.39-8.375 19.28-14.238 30.59-15.914zm-1366.733 3.136-8.932.447c.894 8.935 8.485 15.636 17.417 15.636l-.447-8.935c-4.019 0-7.591-3.127-8.038-7.148zm851.612 0-.447 16.083c4.019 0 8.039-1.787 10.718-4.468 3.126-3.127 4.912-7.147 5.359-11.168zm-17.863-.893c0 4.02 1.786 8.041 4.466 11.168 3.126 3.127 7.145 5.361 11.611 5.361l.446-16.083zm-638.151 5.361-4.465 4.467 8.038 6.701 4.019-4.467zm-169.697-6.255-8.931.447c0 2.234-.893 4.021-2.233 5.361-1.34 1.787-3.126 2.68-4.912 2.68l.446 8.935c8.932-.893 15.63-8.488 15.63-17.423zm802.043 13.402v2.681l3.126.893v-2.68zm343.949-3.862v2.512l13.41 3.769c.42-.837.84-1.256 1.26-2.094zm-303.311 2.522-.447 2.681 3.126.893.447-2.68zm414.771-9.642-13.216 2.063.646 5.475c.483 2.803 2.672 5.522 5.77 5.463l.51-.018 15.51-2.094-.42-2.094c-.42-1.257-1.68-2.513-3.35-3.769-1.26-.838-2.52-1.676-2.94-2.513zm-29.75 7.957v2.513l9.64 2.513v-2.513zm112.71-17.17c-13.82 1.675-26.39 8.376-36.03 18.427l2.51 2.512c9.22-9.213 20.95-15.495 33.94-17.589zm-1211.799-13.31-2.68 3.574 33.047 30.378 3.126-3.127zm1060.959 28.805c.84.838 1.26 1.675 1.68 2.932l8.38 2.093v-2.512zm-567.944-18.977-17.417 16.53-5.358 5.36 1.786 1.787 22.775-21.443zm51.802-12.062-33.493 31.719 3.573 3.574 32.153-32.612zm128.613 31.272v2.68l3.126.894v-2.68zm343.949-3.165v2.094l15.92 4.607c.42-.837 1.26-1.256 1.68-2.094zm81.71.419v2.513l9.64 2.513v-2.513zm-607.414-8.869-14.29 13.402.446.447 14.291-13.402zm222.839 10.275-.446 2.68 3.126.894.446-2.681zm496.035-19.832c-5.87.837-11.73 2.512-17.18 5.025-7.96 3.35-15.51 8.376-21.79 15.076l2.51 2.513c10.06-10.051 23.05-16.751 36.88-19.264zm-1205.19-13.674-3.573 4.468 33.493 31.272 4.466-4.468zm1012.02 18.699v2.513l39.39 10.469h.42l13.83 3.77v-2.513zm-668.16 6.765h-67.879v9.829h68.772c-.447-1.787-.893-3.127-.893-4.914h-12.951v-.894c0-.447.447-.893.893-.893h12.058zm668.16 1.611v2.513l19.7 5.025c.83-.838 2.09-1.256 2.93-1.675zm-482.387-34.669-33.939 33.058 8.931 8.935 23.222-22.337 10.271-9.381zm138.884 37.973v2.68l3.126.894v-2.681zm467.533-8.748-3.77.418 1.68 11.726 3.77-.418zm-1224.025-15.376h-24.561l-6.699 8.934c.893 2.681 1.786 5.361 1.786 8.042l8.485-.447v.894c0 .446-.446.893-.446.893v.447h-4.466c7.592 1.787 15.183 3.127 22.775 3.127h.446v.447h.447v4.467h2.68v-12.062h-28.135c-.446 0-1.339-.447-1.339-.893 0-.447.446-.894.893-.894h28.134zm27.241 0h-24.562v12.955h28.134c.447 0 .894.447.894.894 0 .446-.447.893-.894.893h-28.134v12.062h2.68v-4.467h.446v-.447h.447c10.271 0 20.542-1.787 30.367-5.361v-3.574zm1202.654 14.538-4.19.419 1.67 11.726 3.77-.419-.83-7.538-.84-.419h.84zm-48.19 7.119v2.513l9.64 2.513v-2.513zm-1246.011-1.107-5.806.446c.447 3.128 2.68 4.915 5.806 5.361zm861.883 2.233-.447 2.681 3.126.893.447-2.68zm-854.738-2.233h-5.806l.447 5.807c3.126-.446 4.912-2.68 5.359-5.807zm1157.156-3.499v2.094l25.14 6.7c1.68-.419 3.77-.419 5.45-.419h.84zm119 5.304v.559l-.42 1.675v.837h.84zm-109.36-11.167h-8.8l52.8 14.238v-2.512l-39.81-10.889v.838h-.84c-.42 0-.84-.419-.84-.838v-.419zm249.31-.419c-2.09 2.513-3.77 5.863-4.19 9.213l-.42 3.769c.42.419.84.838 1.26 1.257v-4.607c.42-2.931 1.68-5.863 3.77-7.957zm-800.284 5.313-4.466 4.468 3.126 3.127 4.466-4.468zm656.144 5.575-2.93.419 2.09 1.257c0-.419.42-1.257.84-1.676zm-1117.452-39.974-8.485 10.275 34.386 31.272 8.931-8.935zm662.265 38.867h-3.126v1.34l3.126.893zm422.087-3.081v2.513l9.64 2.513v-2.513zm-728.435 2.187v2.681h4.019zm-19.649-12.955v15.636h17.863v-4.021l-9.378-5.808zm-141.563-.447-9.378 5.808-8.485 4.914v5.361h17.863zm-19.649 11.615-7.592 4.468h7.592zm1057.626-27.202-36.722 5.422.154 2.149.948 6.668c3.78-.419 7.13-.838 10.06-.838 17.6 0 34.78 6.282 47.77 18.008l.42-2.513c.42-3.769 2.09-7.538 5.03-10.888-.42-.419-.84-.838-1.26-1.675l-1.26-1.257c-.42-.418-.84-1.256-.84-2.094 0-.418 0-.837.42-1.256l.42-.419c0-.418.42-.837.84-1.256l-8.38 1.675c-5.849.863-12.55-1.48-15.49-6.933-.004-.005-.008-.011-.012-.016-.199-.37-.397-.74-.595-1.11-.187-.346-.373-.692-.559-1.037-.003-.008-.007-.017-.01-.025-.269-.503-.047-.076-.514-1.348l-.001-.003zm-120.67 21.777-12.58 1.675.84 7.957 16.76-2.094-.42-.419c-.41 0-.41-.418-.83-.418-.42-.419-1.26-.838-1.68-1.257l-.42-.419s0 0 0-.418l-.84-.838-.42-1.675zm4.19-.838h-1.26l.42 3.351c0 .419.42.837.84 1.256l.83.419 2.1 1.256.42.419 1.25 1.256v.419l.709 1.413-.709-5.182-3.35.419c-.42 0-.84 0-.84-.419v-.837zm-88-.418h-9.22l37.3 10.051v-2.513zm-325.745-15.656c2.314 2.24 3.92 5.003 4.912 8.042v.446l-1.34 16.53 8.485.446c0-8.488-3.126-16.082-8.931-22.337-.786-1.281-1.928-2.252-3.126-3.127zm-889.124 4.468c-4.466 5.807-6.699 12.955-6.699 20.55l7.592-.447zm24.115 2.68c-8.932.894-16.077 8.488-15.631 17.423l8.932-.447c0-4.02 3.126-7.594 7.145-8.041zm-.447-5.361c-11.611.894-20.989 11.169-20.542 22.784h3.126c0-4.914 1.786-9.828 4.912-13.402s7.592-5.808 12.504-6.255zm846.253 6.255-.447 16.082 15.63.447c-.446-8.488-6.698-15.636-15.183-16.529zm17.416 14.742v1.787h3.126v-.894zm566.372-10.479-2.09.419 2.09 11.726 2.1-.419zm-1429.148 5.565c-3.126.447-4.912 2.68-5.359 5.807h5.806zm843.574-10.275c-8.932 0-16.523 7.148-16.97 15.636l16.523.446zm-841.788 10.275v5.807l5.806-.446c-.447-3.127-3.126-5.361-5.806-5.361zm1430.712-6.402-2.09.419 2.09 11.726 2.1-.419zm-1431.158-4.32.446 8.935c4.02 0 7.592 3.127 8.039 7.148l8.931-.447c-.446-4.467-2.679-8.041-5.805-11.169-3.126-2.68-7.145-4.467-11.611-4.467zm819.905 12.062v2.681l3.126.893v-2.68zm4.019-21.444c-1.339.894-2.679 1.787-3.572 2.681-6.252 5.808-9.825 13.402-10.271 21.89l7.591.447.447-16.083.446-.446c1.34-3.128 3.126-5.808 5.359-8.489zm421.194 19.984v2.512l9.64 2.513v-2.513zm58.66 0-9.22 1.256.42 3.35.838-.114c-.221-.119-.072-.032-.418-.304l8.746-1.009-.086-.946zm-1303.332-15.963h-.446v3.127c4.912 0 9.378 1.787 12.95 4.915 3.573 3.127 5.806 7.594 6.252 12.508h4.02c-1.34-11.615-11.165-20.55-22.776-20.55zm627.433 12.956-4.465 4.467 3.126 3.127 4.465-4.467zm-604.211-12.509.893 20.103 7.592-.446c-.447-7.595-3.573-14.296-8.485-19.657zm624.754 13.849-4.913 4.021 1.787 1.787 4.912-4.021zm213.461 2.234-.447 2.68 3.126.894.447-2.681zm343.005-2.661h-9.21l21.79 5.863v-2.513zm-719.018-12.082-20.096.447c-10.718 8.935-24.561 14.296-38.405 14.296v3.127h67.879v-11.615zm-99.139 0h-20.542l-8.485 5.808v12.062h67.878v-3.127c-14.29 0-27.687-5.361-38.405-14.296-.446 0-.446-.447-.446-.447zm917.445 17.352-.032.003.016.176.038-.005zm10.082-5.27h-13.83v.837l3.77-.419c.84-.418 1.26 0 1.26.419l.42 4.188c3.35-.419 6.28-2.513 8.38-5.025zm-975.31-25.037c.446 1.34.893 3.127.893 4.467h9.824v.894c0 .446-.446.893-.893.893h-9.378c0 1.787-.446 3.127-1.339 4.914v17.423l7.591-4.467 9.825-6.701s.446-.447.893-.447l15.183-10.275c1.34-.894 2.68-1.34 4.466-.894h50.016v-4.914h-79.043c-2.679 0-5.359-.447-8.038-.893zm945.98 14.148-15.09 2.094.84 7.957 6.29-.838c.41 0 .83.419 1.25.838l.42 4.188 7.96-.838zm-33.11 10.47h-6.7v.837l9.64 2.513v-2.513zm-407.351-16.13v6.701c7.145.893 13.397 5.807 15.63 12.509l.446-7.148c-2.233-6.701-8.931-11.616-16.076-12.062zm-24.115 15.636v2.68l3.126.894v-2.681zm476.726-11.651-5.87.838s-.42.418-.84.418h-.42l-2.93.419 1.68 12.983 10.05-1.257zm-434.749 10.757-.446 2.681 3.126.893.446-2.68zm354.719 1.807h-5.87l5.87 1.675zm-791.466-12.082h-35.725c10.271 8.041 22.775 12.956 35.725 12.956zm37.513 0h-35.726v12.956c12.95-.447 25.454-4.915 35.726-12.956zm378.692-4.467c-1.786 0-4.019 0-5.805.893-4.466 1.787-8.485 5.361-10.718 10.275v5.361c3.126-5.808 9.825-9.828 16.97-9.828zm-845.806-34.846c-9.825.893-17.863 7.148-20.989 16.529l1.786 34.846c.893-1.787 1.786-3.574 3.126-5.361l-1.34-26.357v-.894c1.787-5.361 5.806-9.828 11.165-12.062 2.233-.893 4.465-1.787 6.698-1.787zm318.405 32.612h-43.317c-.447 4.467-4.019 7.595-8.485 8.041v3.574l21.882 5.808c8.038 1.787 16.523 1.34 24.561-.894l13.844-4.914v-3.574c-4.019-.446-7.592-3.574-8.485-8.041zm418.438-28.591v46.907h5.359v-40.653c0-3.127-2.233-5.808-5.359-6.254zm-1.787 0c-3.126.446-5.358 3.127-5.358 6.254v40.653h5.358zm-7.145 23.23-21.435 20.997 2.233 2.68h19.202zm96.46 18.763v2.681l3.126.893v-2.68zm345.156 1.612-1.26 1.256.84.419h1.26l.41-.419zm4.61 0-1.26 1.256.84.419h1.25l.42-.419zm4.61 0-1.26 1.256.84.419h1.25v-.838zm4.19 0-.84 1.256.84.419h.83l.42-.419zm5.02 0-1.25 1.256.84.419h1.25l.42-.419zm4.61 0-1.25 1.256.83.419h1.26l.42-.419zm4.61 0-1.25 1.256.83.419h1.26l.42-.419zm4.61 0-1.26 1.256.84.419h1.26l.42-.419zm5.03-18.846h-.42v20.521zm27.65 17.589h-25.97v2.932h25.97zm38.13 0h-36.45v2.932h36.87zm48.19 0h-16.76l.42 2.932h15.08c.42-.838.84-2.094 1.26-2.932zm-1318.554-46.369h-.447l.447 4.467c2.679 0 5.358.447 7.591 1.341 5.359 1.786 9.378 5.807 11.611 10.721v.894l1.34 26.358c1.34 1.786 2.233 3.573 3.572 5.36l-1.786-34.845c-4.019-8.935-12.95-14.296-22.328-14.296zm863.669 45.121c.446.446.446.893.893 1.787l-.447.893v.447l3.126.893.447-2.68zm315.775 1.248h-.42v1.257l.84-.838zm-13.83 0h-.42v1.257l.84-.838zm5.03-.419-2.1.419 1.26 1.257 1.26-1.257zm23.05 0-2.1.419 1.26 1.257 1.25-1.257zm-9.22 0-2.1.419 1.26 1.257 1.26-1.257zm-9.22 0-2.1.419 1.26 1.257 1.26-1.257zm13.83 0-2.1.419 1.26 1.257 1.26-1.257zm9.21 0-2.09.419 1.26 1.257 1.25-1.257zm4.19 0-1.67.419 1.26 1.257.41-.419zm-1187.301-43.27c4.019 2.681 7.145 6.255 9.378 10.722v.447l.893 20.997c3.573 3.574 6.699 7.594 8.485 12.062l5.805-8.042v-7.147c0-.447.447-.894 1.787-.894h2.233v-8.488h-4.913c-2.233-.447-4.019-1.787-4.019-4.021-.446-1.787.893-4.02 3.126-4.467.447-1.34.447-3.127-.447-4.468-.893-1.34-2.232-2.68-4.019-3.127-.446-.446-1.339-.446-1.786-.446h-.446zm1411.481 31.963-2.94.419.42 3.769h.84l-.84.419 1.26 7.538 3.35-.419zm-700.986-25.262-29.92 28.592 7.145 8.488 22.775-21.89zm706.426 24.006-4.19.837 2.1 11.726 4.19-.837zm-609.52 8.607c0 .446-.446.446-.446.893v1.34l3.126 1.341c.446-.894.893-1.341 1.339-2.234zm37.066-2.681c.893 1.34 1.786 2.234 2.679 3.574l5.359 1.787v-.447c-.447-.893-.893-1.787-1.34-2.68zm-127.72-41.994-73.684 11.169c-10.271 1.787-20.096 6.701-27.241 13.849l-3.126 3.127 31.26 19.21 21.882-20.997.893-.447h.893l.894.894 10.271 12.509 34.386-33.059c1.339-.894 2.679-1.787 3.572-2.681zm468.464-27.588h-.42v70.356c0 1.676-.84 2.932-1.68 4.188h3.78v-16.332c0-.419.41-.838.83-.838h1.26v-12.983h-1.26c-.42 0-.83-.418-.83-.837v-41.041h-.84c-.42 0-.84-.419-.84-.838zm-31.85 73.288h-3.35l-1.25 1.256h3.35zm5.45 0h-3.35l-1.26 1.256h3.35zm3.35 0h-.83l-1.26 1.256h2.09zm8.38 0h-3.35l-1.26 1.256h3.36zm5.87 0h-3.35l-1.26 1.256h3.35zm6.29-4.188-1.68 1.675c-.42.838-1.26 1.675-2.1 2.094l-1.67 1.675h1.26c2.09 0 4.19-1.675 4.19-4.188zm35.19-79.151h-29.33v3.35h5.45c1.67 0 3.35 1.257 3.35 3.351s-2.09 3.35-3.77 3.35h-5.03v42.298h1.26c.42 0 .42 0 .84.418v31.828h.42l.41-7.119c0-.419.42-.838.84-.838h7.55v-29.315c0-17.589 6.28-34.341 18.01-47.323zm-.84 78.313h-23.46v6.282h23.46zm25.15 0h-23.47v6.282h23.47zm79.61-61.561h-74.59c-7.54 9.213-11.73 20.52-11.73 32.246v27.64h7.54c.42 0 .84.419.84.838v7.119h10.9l-.42-2.931h.42c0-.419.41-.419.83-.419l5.45-.778v-13.042c0-.419.42-.419.42-.419h.84 13.83v-12.563c0-.419.41-.419.41-.419.252.027.393.147.42.418.42 0 .84.419.84.838v11.726h13.83c.42 0 .84.419.84.838v14.239h10.47v-1.257h.42v-.419h.42l1.68-.418v-12.983c0-.419.42-.837.83-.837h2.1v-4.188c0-.419.42-.838.84-.838h3.77v-16.333c0-.418.42-.837.84-.837h.83c.027-.253.15-.392.42-.419h12.57v-7.957h.84c.42 0 .84.419.84.838v7.119h5.837l-1.227-15.495h-3.77c-.42 0-.84-.419-.84-.838v-7.538h-6.28c-.42 0-.84-.419-.84-.838v-.837c-.42 0-.42-.419-.42-.419zm-18.44 67.424h-17.18v.419h17.18zm-157.97-2.512-1.25 1.256c.42.419 1.25 1.256 2.09 1.256l1.26-1.256c-.84 0-1.68-.419-2.1-1.256zm19.28 1.675h-.84v.837zm-188.03-12.194 24.12 12.509.44-11.615zm-994.067-24.124c-1.787 0-4.019.447-5.806 1.34-4.912 2.234-8.485 6.255-10.271 11.169l1.34 24.124c4.466-4.468 10.271-7.595 16.076-8.042zm341.18 25.464h-3.572c-.893 4.468-4.466 7.595-8.485 8.042v2.68l8.485-2.68c.893-1.341 1.786-2.681 2.679-4.021v-3.574h.893zm-88.421 0c0 3.574 1.786 6.701 4.466 8.488l7.592 2.234v-2.234c-4.02-.446-7.592-3.574-8.485-8.041zm1188.708-4.641-1.26.419.367 2.931h.473v.419l-.26.047c.3.065.255.559.26.79 0 .419-.42.838-.84 1.257l-3.35-.419 1.67 9.213h.84c0-.418 0-.418-.42-.837v-4.607l.42-.837.42-.419v-.419l2.1-2.932c0-.418 0-1.256 0-1.675zm-1437.56-20.551-1.674.175 1.339 28.591h.447c6.252 0 12.057 2.234 16.523 6.255l-1.34-24.124c-1.786-4.468-5.805-8.042-10.271-9.829-2.741-.948-1.09-.494-5.024-1.068zm1304.31 33.952h-5.03v.838h5.03zm-481.167-2.952c-.447.893-.893 1.34-1.34 2.234l4.02 1.34c.446-.894 1.339-1.787 1.786-2.234zm335.347-1.236-1.67 1.256v2.094c0 .419 0 .838.42 1.257l1.25-1.257zm6.71 0h-5.45v2.513c0 .837.84 1.675 1.68 1.675h1.67v-1.675c0-.419.42-.838.84-.838h.84v-.837c0-.419 0-.419.42-.838zm10.47 3.35h-10.89v.838h10.89zm12.57 0h-10.89v.838h10.89zm4.61-3.769h-5.44v1.675h1.25c.42 0 .84.419.84.838v2.094h1.68c.84 0 1.67-.838 1.67-1.675zm227.11-.837-9.22 1.675.42 3.35 9.22-1.675zm-77.52-7.538h-20.95v11.726l5.032-.755 28.459-4.425-1.231-6.546h-9.63v4.187h-.84c-.42 0-.84-.418-.84-.837zm-52.79.418h-12.99v11.308l8.38-1.257-.42-2.931.84-.419c.41 0 .83.419.83.838l.42 2.512 2.94-.419zm-445.071 2.464v2.234c3.572 0 6.698 1.34 9.824 3.574l8.932 2.68c-.894-1.34-1.787-2.68-2.68-3.574zm595.888 6.354-2.805.498c.735.734.352.349 1.148 1.154zm-135.737-8.818h-12.99v9.214l6.29-.838c.83 0 .83.419 1.25.838v1.256h5.45zm-1043.82 4.251h-6.699c.893 3.127 3.573 5.361 6.699 5.808zm8.484 0h-6.698v5.808c3.126-.447 5.805-2.681 6.698-5.808zm54.036-.447h-6.699c.893 3.127 3.573 5.361 6.699 5.808zm-259.458.447h-24.115v5.361h24.115zm267.496-.447h-6.252v5.808c3.126 0 5.805-2.681 6.252-5.808zm-241.149.447h-24.115v5.361h24.115zm1105.891.356-1.26 1.256v3.351l1.26-1.257zm-369.941.984c-.446.894-1.34 1.34-1.786 2.234l4.466 1.34c.893-.447 1.786-1.34 2.679-1.787zm-349.219 0h-49.569v3.127h55.375l-3.126-2.233c-.893-.447-1.787-.894-2.68-.894zm-51.356 0h-50.016c-.893 0-1.786.447-2.679.894l-3.572 2.233h56.267zm749.976-1.822h-8.38v4.188h8.38zm10.06 0h-8.38v4.188h8.38zm-336.35-56.61-3.908.356-112.09 16.976v2.68l112.536-16.976c2.68-.446 4.913-.446 7.592-.446 7.592 0 15.63 1.787 22.775 5.36l104.055 52.716v-3.127l-103.162-51.822c-6.179-3.042-12.889-4.909-19.751-5.549-2.671-.25-5.364-.112-8.047-.168zm380.77 52.841h-8.38v7.539h8.38zm10.47 0h-8.38v7.539h8.38zm31.43-97.996-27.66 19.683c-9.152 6.398-16.365 14.987-21.468 24.867-5.467 9.838-7.528 20.957-7.862 32.088v28.478h4.61v-8.376c0-.419.42-.838.84-.838h9.64v-21.777h1.67v21.777h9.64c.42 0 .84.419.84.838v8.795h4.61v-27.641c0-16.751 8.38-32.665 21.78-42.716l7.55-5.444v-4.607h-2.52-.83c-.42 0-.84-.419-.84-.837v-13.82h-2.94-.001-.829c-.42 0-.84-.419-.84-.838s.42-.838.84-.838h3.77zm-441.762 100.46c-.893.447-1.786 1.34-2.679 1.787l6.252 1.787h.446c.447 0 .894-.447 1.34-.447.893 0 1.786-.446 1.786-.893zm591.352-11.258-8.8 1.675 2.51 12.982 5.87-1.256 3.35-.419zm-31.43 8.376h-34.78l.84 6.281 33.94-5.025zm-552.33.648c-1.786.447-3.126.894-4.466 1.341l9.378 2.68v-2.68zm6.699-.446v.893l12.95 3.574c-4.019-2.68-8.485-4.021-12.95-4.467zm595.071-11.51-15.92 2.932 2.51 12.982 8.8-1.675-.83-4.607.41-.418c0-.419.42-.419.42-.419l5.87-1.257zm-243.44 10.889-1.26 1.256v3.35l1.26-1.256zm-347.558-56.471-4.52.355-111.196 16.977v2.68l111.643-16.976c3.126-.447 5.805-.447 8.484-.447 8.485 0 17.417 1.787 25.008 5.808l102.269 51.822v-3.127l-100.929-50.929c-6.838-3.261-14.209-5.29-21.762-5.973-2.987-.27-5.998-.127-8.997-.19zm-587.742 48.157-8.485 2.233c-2.68 2.234-4.019 5.808-4.019 9.382h3.572c0-4.914 4.019-8.935 8.932-9.382zm0 4.02c-3.573.447-6.699 3.574-6.699 7.595h6.699zm63.859-4.914v2.681c4.913.446 8.932 4.467 8.932 9.381l3.126.447c0-4.021-1.34-7.148-4.019-9.828zm-62.073 4.914v7.595h6.698c0-4.021-3.126-7.148-6.698-7.595zm-175.503-.893h-20.989v8.488h20.989zm-23.221 0h-20.989v8.488h20.989zm259.458.447c-4.02.446-7.145 4.02-6.699 7.594h6.699zm-29.668-12.261c-7.175.613-4.128.148-9.184 1.092l-21.882 6.255v3.127c4.912.446 8.931 4.467 8.931 9.381h42.871c0-4.914 4.019-8.935 8.932-9.381v-3.574l-14.291-4.914c-3.594-.892-4.903-1.308-9.184-1.736-2.056-.205-4.129-.166-6.193-.25zm688.358 14.048v2.68l3.58 1.787 39.29 1.34v-4.467zm-656.904-1.787v7.594h6.698c0-4.02-3.126-7.148-6.698-7.594zm517.576 5.361h-.893l.893.446zm94.673-5.361v4.467l21.436.894-9.825-4.915zm42.875 1.34h-4.47l4.47 2.234zm362.52-1.207h-18.02v3.35h18.02zm10.06 0h-8.8v3.35h9.22zm9.22 0h-7.55l.84 3.35h6.71zm-5.87-37.691h-3.35v2.513c0 .419-.42.837-.84.837h-2.1v.419l2.316 14.239h5.644c.42 0 .42.419.42.419v.837h.84c.42 0 .84.419.84.838v15.495h2.93c.42 0 .42.419.42.419v.419h.42c.42 0 .84.418.84.837v3.769h8.8v-12.563c0-.419.42-.838.84-.838h2.09v-11.307h.42l.42-.419v-.419l.42.419h12.99v-4.607h.84c.42 0 .83.419.83.838v3.769h12.16v-15.914h-25.56c-.42.419-.84.419-.84 0h-16.76c-.42.419-.84.419-1.26 0h-2.51c-.42.419-.84.419-1.26 0zm33.94 37.691h-14.67v3.35h14.67zm14.25 0h-12.16v3.35h12.16zm-208.25-1.256-1.26 1.256v3.35l1.26-1.256zm-770.516-40.871h-106.73l-.447.447c-1.786 4.02-2.679 8.488-2.679 12.955 0 7.148 2.679 14.296 7.592 20.104v-.447h.893c.446 0 .893.447.893.893v1.341l8.931 3.127h.447c1.34 1.34 2.233 2.68 3.126 4.467 3.126.894 6.252 1.34 8.931 1.787h79.043zm108.517-.447h-106.73v44.674h79.043c16.97 0 30.813-13.849 30.813-30.825 0-4.467-.893-9.381-2.679-13.402zm488.099 30.825h-5.35l-.45 12.062h5.36zm-7.59 0h-6.7l-.44 12.062h6.7zm-8.48-.446h-6.7l-.45 12.062h6.7zm-16.97-.894h-6.25l-.45 12.062 6.25.447zm8.48.447h-6.7l-.44 12.062h6.7zm-25.01-.447h-6.694l-.447 8.935 6.251 3.127h.45zm8.49 0h-6.25l-.45 12.062h6.25zm-40.192 9.382v1.787h4.019zm449.172-4.669h-14.67v6.282h14.67zm14.25 0h-12.16v6.282h12.16zm-62.02-9.213h-12.99v15.495h12.99zm7.96 0h-5.86v15.495h8.38zm7.13 0h-5.45l2.51 15.495h2.94zm-161.32 10.47-1.26 1.256v3.35l1.26-1.256zm-1132.685-.609h-27.688c-.446 0-.893.447-1.339.894-.447.446-.447 1.34-.447 1.787.447 1.34 1.34 2.233 1.786 2.233h27.688zm30.813 0h-27.687v4.914h27.687c.447 0 .894-.446 1.34-.893.447-.447.447-1.34.447-1.787-.447-.894-1.34-1.787-1.787-2.234zm131.292-61.65h-38.405v2.68h39.745c5.359 0 9.378 4.468 9.378 9.382v52.269l2.233-1.341h-.447v-50.481c0-6.702-5.358-12.509-12.504-12.509zm738.63 55.842h-6.699v4.915l6.252 3.127zm231.95.972-1.26 1.257v3.35l1.26-1.256zm-1033.546-22.862h-96.46v18.317h21.882c.447 0 .894.446.894.893s-.447.893-.894 1.34h-21.882v5.808h26.795c0-.447 0-.894 0-1.34 0-2.681.893-4.468 2.679-6.255 1.34-1.787 3.573-2.68 5.806-2.68l53.588-11.169h.447c2.679-.446 5.805-2.233 7.145-4.914zm-98.692 0h-96.46c1.786 2.681 4.466 4.468 7.592 4.914h.446l20.096 4.021v-3.574h.893c.447 0 .893.447.893.894v3.127l31.707 6.701c.447 0 1.34 0 2.233.447 2.233.446 4.019 1.787 4.912 4.02.893 1.787 1.34 3.574.893 5.361h26.795v-5.808h-21.882c-.447 0-.894-.446-.894-.893s.447-.893.894-.893h21.882zm891.803 21.89h-6.699v.894l6.699 3.127zm422.705-5.728v8.794h7.96zm12.15-1.257h-10.48l9.22 10.051h1.26zm13.83 0h-12.16v10.051h12.16zm-208.25 2.094-1.26 1.257v3.35l1.26-1.256zm-213.19-8.511-.45 12.062 26.79.894.45-12.062zm-28.585-.447-.446 12.062 26.791.894.45-12.062zm241.775 3.095-1.26 1.257v3.35l1.26-1.256zm0-5.863-1.26 1.257v3.35l1.26-1.256zm-1016.13-1.252h-4.466v4.467h4.466zm6.252 0h-4.466v4.467h4.466zm-238.022 0h-4.466v4.467h4.466zm6.252 0h-4.466v4.467h4.466zm1241.648-4.192-1.26 1.256v3.351l1.26-1.257zm-1011.218.171h-3.126l2.233 2.234h.893zm-5.805-.447h-2.233v2.234h3.126v-1.34zm-230.877 0h-3.126v2.234h.893zm4.912 0h-2.233l-.893.894v1.34h3.126zm1242.988-5.587-1.26 1.256v3.351l1.26-1.257zm150-12.145h-1.67v16.333h5.86v-1.675h-3.35l-.42-.419h-.42zm-1397.9 10.138h-6.252c-.894.447-1.34.893-1.34 1.787 0 .893 0 1.787.446 2.68.447.894 1.787 1.34 2.68 1.34h4.466zm231.77 0h-113.876v5.807h113.876zm6.252 0h-4.466v5.807h4.02c.446-.446 1.339-1.34 1.339-2.233.447-.894 0-1.787 0-2.681zm-122.36 0h-113.876v5.807h113.876zm1291.458-10.138h-7.12v12.983h7.12zm3.77 0h-1.67v12.983h1.67zm13.83 0h-12.15v12.983h15.92v-8.376h-2.93c-.42 0-.84-.419-.84-.838zm9.64 4.188h-3.36v8.795h24.73v-6.282l-9.64 5.444h-.42l-11.31-6.282zm-186.46 2.094-1.26 1.256v3.351l1.26-1.257zm207.83-6.282h-.42c0 4.607-3.77 8.376-8.38 8.795v1.256l8.8-5.025zm-19.7 0h-.42v5.026h.42l8.8 5.025v-1.256c-4.886-.588-7.653-4.308-8.8-8.795zm-903.271-35.43h-54.035v44.674h105.838l-8.039-16.976c-2.232-4.914-7.145-7.594-12.504-6.701h-1.786v12.509h-.893c-.447 0-.893-.447-.893-.894v-11.615c-7.145-.447-13.844-5.361-16.077-12.509v-.446c-.893-1.787-1.339-3.128-2.679-4.468h-13.397v-.893c0-.447.446-.894.893-.894v.447h10.271c-1.786-1.34-4.466-2.234-6.699-2.234zm-154.067 12.062-11.164 23.677c.893-.893 1.786-1.786 2.679-2.68.447-.893.893-.893 1.34-.447.893.447.893.894.447 1.341-1.787 2.233-3.573 4.02-6.252 4.914l-9.378 5.807h12.504l8.484-17.869c1.34-4.021 4.913-6.701 8.932-7.595-3.126-1.787-5.805-4.021-7.592-7.148zm198.725-.447c-1.787 3.128-4.466 5.361-7.592 7.148 3.572.894 7.145 4.021 8.931 7.595l8.485 17.87v-.447h10.271l-5.359-3.127c-2.232-.894-4.019-2.681-5.358-4.468 0-.447 0-.893.446-1.34h.893s.447 0 .447.447c.446.893.893 1.34 1.34 1.787zm-100.033-12.508h-54.035c-2.232 0-4.912.893-6.698 2.233h11.611v.894c0 .447-.447.893-.894.893h-12.95c-1.34 1.341-2.233 2.681-2.68 4.468v.447c-2.232 7.147-8.931 12.062-16.076 12.508v12.509h-.893c-.447 0-.893-.447-.893-.893v-11.616h-1.787c-5.359-.893-10.271 2.234-12.504 6.701l-8.038 16.53h105.837zm917.166 36.323h-5.45v7.957h5.45zm-1162.78 3.883h-113.876v4.021h113.876zm5.359 0h-3.573v4.021h3.573zm-237.129 0h-5.806v4.021h5.806zm115.662 0h-113.876v4.021h113.876zm464.434-35.739c0 2.234-.447 4.021-1.34 5.808l14.291 29.931 5.805 3.574zm865.154 31.856h-6.7c.42 3.35 3.35 6.282 6.7 6.701zm8.38 0h-6.7v6.701c3.35-.419 6.28-3.351 6.7-6.701zm-1077.171-31.856-17.862 37.08 5.805-3.574 13.397-27.698c-.893-1.787-1.34-4.021-1.34-5.808zm1013.481 14.686h-15.92v2.931c0 .419-.42.838-.84.838h-32.26v5.863c0 1.256-1.26 2.513-2.52 2.513-.84 0-1.25-.419-1.67-.838s-.84-.837-.84-1.675v-4.607l-1.402.839-.698.522v2.408c0 .838-.42 1.676-.83 2.094l-.104.083c-.003.005-.006.01-.009.015-.102.107-.205.214-.307.321-.42.419-1.26.419-1.68.419l-.007-.001c-.788.001-1.485-.355-2.083-.837l-.42-.418-6.71 5.025c-2.51 2.094-5.03 4.188-7.54 6.701h72.91v-5.026h-1.26c-.42 0-.84-.419-.84-.837 0-.419.42-.838.84-.838h1.26v-8.795c0-.418.42-.837.84-.837h6.28v-1.257c0-.418.42-.837.84-.837h-4.19c-.42 0-.84-.419-.84-.838zm-142.04 17.589-1.26 1.256v3.351l1.26-1.257zm186.46-.419h-7.55v2.932h7.55zm-1257.072-110.482h-45.103v3.127c0 .893-.447 1.34-1.34 1.34h-9.378c-.447 0-.893-.447-.893-.893v-2.681h-2.68v111.685h113.876v-8.934h.893c.447 0 .893.446.893.893v8.041h3.573v-55.395h-9.378v-.894c0-.447.447-.893.893-.893h8.485v-19.21h-13.844v-.894c0-.447.447-.893.893-.893h12.951v-19.21h-9.378v-.894c0-.446.447-.893.893-.893h8.485v-13.402h-58.054v9.381h-.893c-.447 0-.894-.447-.894-.893zm-121.467.893h-66.092v.447h8.485l.446.447v.893l-2.233 4.021c0 .446-.447.446-.893.446h-5.359v32.166h16.077v.893c0 .447-.447.894-.894.894h-15.629v37.973h2.233c.446 0 .892.447.892.893l.001 4.914c-.001.447-.447.894-.894.894h-2.232v5.361h2.233c.446 0 .892.447.892.893l.001 5.361c-.001.447-.447.894-.894.894h-2.232v14.295h10.271v-8.934h1.786v8.934h113.876v-111.685h-58.055v24.571h-.893c-.446 0-.893-.447-.893-.894zm1192.079 104.564-1.26 1.256v3.35l1.26-1.256zm197.35-3.351c-3.77.419-6.28 2.932-6.7 6.701h6.7zm2.1-2.931v1.256c4.19 0 7.96 3.769 8.38 8.376l.42-4.607zm-52.8 1.675h-5.45v7.957h5.45zm3.35-1.675h-1.67v9.632h1.67zm9.22-1.675h-7.12v11.307h7.12zm3.77 0h-1.67v11.307h1.67zm50.28-7.538h-28.07c-.42 4.187-4.19 7.538-8.38 7.538h-11.73v11.307h11.73v-3.769c0-.419.42-.838.84-.838h2.93v-6.282l.42-.418c4.61-4.188 10.47-6.282 16.34-6.282 4.61 0 8.8 1.256 12.99 3.769.84-1.675 1.68-3.35 2.93-5.025zm-26.81 16.332h-7.55v2.513h7.55zm10.47-7.538-8.8 5.026v5.025c.84-4.607 4.61-7.957 8.8-8.795zm2.1 3.35v6.701h6.7c-.42-3.35-3.35-6.282-6.7-6.701zm-196.52 3.769h-.42v2.932h.42zm9.22 0h-5.03v2.932h4.61c.84 0 2.09-.838 2.09-1.675 0-.838-.83-1.257-1.67-1.257zm-9.22-35.597h-.42v33.922h.42zm194.84 22.615c-5.45 0-10.47 2.094-14.66 5.863v5.444h3.35v-1.256s0-.419.42-.419l10.47-5.863v-2.931c0-.419 0-.419.42-.838zm-197.35 6.701-1.26 1.256v3.35l1.26-1.256zm84.64-2.932h-2.1v5.863h-.42c0 .419 0 .419.42.419 0 0 .42.419.84.419s.42 0 .84-.419c0 0 .42-.419.42-.838zm6.28.419h-.84v6.282h.42c.42 0 .42-.419.42-.419zm-1390.622-6.393h-11.611v8.488c-.001 1.787 1.339 3.127 3.125 3.127h8.486zm13.397 0h-11.611v11.615h8.485c1.786 0 3.125-1.34 3.125-3.127zm1484.916 2.205c.437.035.412.505.419.838v2.931l9.22 5.444c.41-1.675.83-3.769 1.25-5.444-3.274-2.158-7.075-3.132-10.889-3.769zm-57.831-70.356h-89.25v6.281h-1.25v.419c-8.777-1.502-17.106.133-24.838 4.391-.628.36-.085.045-1.562 1.053-7.96 5.445-12.99 13.402-15.09 23.034 0 3.769-.41 7.538 0 10.888v1.675h-4.19v28.478s.42-.419.84-.419h31.85c2.93-3.35 6.7-6.282 10.05-8.794l28.08-19.925v-1.852c0-.419.42-.419.42-.419h.42v-.838c0-.418.42-.837.83-.837h2.52v-2.094c0-.419.42-.419.42-.419h.42v-.838c0-.418.42-.837.83-.837h3.78c.41 0 .83.419.83.837v3.351h1.68v-2.094c0-.419.42-.419.42-.419v-.838c0-.418.42-.837.84-.837h2.93c.42 0 .84.419.84.837v3.351h32.26c.42 0 .84.419.84.837v2.932h19.27v-1.675c0-.419.42-.838.84-.838s.84.419.84.838v1.675h2.93v-5.026h-9.63c-.42 0-.42-.418-.42-.418v-.419c-.42 0-.84-.419-.84-.838v-8.375h-2.93c-.42 0-.42-.419-.42-.419-.42 0-.84-.419-.84-.838s.42-.837.84-.837h3.35v-8.795c0-.419.42-.838.84-.838h10.05v-4.187c0-.419.42-.838.84-.838h2.93c-6.44-2.982-10.498-8.437-12.57-15.076zm-140.78 71.194-1.26 1.256v3.35l1.26-1.256zm87.15 3.35h-.84v.419zm57.41-14.239h-67.05v12.564h46.51v-2.932c0-.419.42-.837.84-.837h20.11v-.838c-3.35-.419-5.86-1.675-6.28-3.35h-.84c-.42 0-.84-.419-.84-.838s.42-.837.84-.837h.84c.84-1.676 2.93-2.513 5.87-2.932zm.83 10.47h-1.25v2.094h1.25zm17.6-10.47h-1.67v9.632c0 .419-.42.838-.84.838h-12.57l-.42 2.094h15.5zm20.11 0h-18.43v12.564h11.73c3.77 0 6.7-2.932 6.7-6.701zm-870.107-4.216h-15.183c.447 8.041 7.145 14.743 15.183 15.189zm-167.017 0h-15.184c.447 8.041 7.145 14.743 15.184 15.189zm183.987 0h-15.183v15.189c8.038-.446 14.737-7.148 15.183-15.189zm-167.018 0h-15.183v15.189c8.038-.446 14.29-7.148 15.183-15.189zm837.055 9.242-1.26 1.256v3.35l1.26-1.256zm159.22-5.445h-10.89c2.09.419 3.77.838 4.61 1.675h.41v.419l.42.419s0 .419.42.419h.84c.42 0 .84.419.84.837 0 .419-.42.838-.84.838h-.84c-.84 1.675-3.35 2.932-6.7 3.35v.838h11.73zm-1449.098.671h-8.038v5.807h8.038zm1435.268 4.355h-4.19c.84.419 2.1 1.256 4.19 1.256zm6.29 0h-4.19v1.256c2.09 0 3.35-.837 4.19-1.256zm-1451.382-4.802h-8.039v5.807h8.039zm1497.052-7.343h-12.15v12.145h29.33c3.35-4.188 7.54-7.12 12.57-9.214-1.26-.837-2.51-1.675-3.35-2.931h-24.72v1.675c0 .419-.42.838-.84.838s-.84 0-.84-.838zm-197.35 7.119-1.26 1.257v3.35l1.26-1.256zm145.39 2.094c-.83 0-1.25 0-2.09.419.84.419 1.26.419 2.09.419zm2.1 0v.838c.84 0 2.09-.419 2.93-.419-.84-.419-2.09-.419-2.93-.419zm-147.49-7.957-1.26 1.257v3.35l1.26-1.256zm-1259.958-36.354h-37.958v40.654h18.309v-16.083c0-.893.447-1.34.893-1.34h18.756zm-39.744 0h-18.31v40.654h18.31zm1458.922 31.748h-11.73v.837h1.67c2.52.419 4.19 1.675 5.03 2.932h.84c.42 0 .84.419.84.837 0 .419-.42.838-.84.838h-.84c0 .419-.42.419-.42.837v.419c-1.67 1.257-3.35 1.675-5.44 2.094h10.89zm-34.78-3.769h-38.13v1.675c0 .837-.42 1.675-.84 2.094-.41.418-1.25.837-2.09.837s-1.68-.419-2.1-.837c-.41-.419-.83-1.257-.83-2.094v-.838h-2.1v1.256c.42.419.42.838 0 1.257v9.213h66.62c-2.93-.419-5.02-1.256-5.86-2.931h-.84c-.428-.028-.725-.347-.819-.748-.026-.043-.013-.015-.021-.09 0-.419.42-.838.84-.838h.84c.42-1.675 2.93-2.931 6.28-3.35v-.837h-20.11c-.42 0-.84-.419-.84-.838zm38.55-13.402h-1.67v25.965h1.67zm13.41 13.402h-11.73v12.563h18.43v-5.863c0-3.769-2.93-6.7-6.7-6.7zm-28.91 9.632v1.256c1.26 0 2.09-.419 2.93-.419-.84-.837-2.09-.837-2.93-.837zm-2.1 0c-.42 0-1.25.418-2.09.418.84 0 1.26.419 2.09.419zm79.2-15.496h-4.61c.42 6.282 3.77 12.145 9.64 15.077 2.09-.838 4.6-1.257 6.7-1.257h2.09c2.94 0 5.87.419 8.8 1.257l5.03-15.077c-.42 7.12-6.7 12.983-13.83 12.983-7.12 0-13.4-5.863-13.82-12.983zm-911.597-.671c-8.038.447-14.736 7.148-15.183 15.189h15.183zm-13.397 5.808c-.893.446-2.233.446-3.126.446h-64.753v4.914h54.036c3.572 0 7.145 1.341 9.824 4.021h.447c0-3.127 1.339-6.701 3.572-9.381zm-153.62-5.808c-8.039.447-14.737 7.148-15.184 15.189h15.184zm15.63 5.808c1.954 2.801 2.969 5.997 3.126 9.381h.446c2.68-2.68 6.252-4.021 10.271-4.021h54.035v-4.914h-64.752c-.935-.009-1.295.013-2.387-.188-.256-.048-.493-.172-.739-.258zm153.174-5.808v15.189h15.183c-.446-8.041-7.145-14.742-15.183-15.189zm-167.018 0v15.189h15.183c-.446-8.041-7.145-14.742-15.183-15.189zm997.628 12.816c-1.67 0-3.35.838-4.19 1.257h4.19zm2.1 0v1.257h4.19c-.84-.419-2.1-1.257-4.19-1.257zm-147.49-3.769-1.26 1.257v3.35l1.26-1.256zm227.52-8.376h-1.26c.42 6.282 5.87 11.308 12.15 11.308 6.29 0 11.74-5.026 12.16-11.308h-1.26c-.42 5.445-5.03 10.051-10.9 10.051-5.86 0-10.47-4.187-10.89-10.051zm-42.74 9.214c0 .837.42 1.256.42 2.094h12.15v-.419c-4.19.838-8.38 0-12.57-1.675zm28.971-10.341c-1.323 3.876-4.406 6.724-7.601 9.084-2.09 1.257-4.19 2.094-6.28 2.513v.838h22.2c-2.51-3.351-3.77-7.12-4.19-11.308h-3.35c-.42 0-.84-.418-.84-.837zm-27.711-.966h-3.35v8.375c4.19 2.513 9.21 3.351 14.24 2.513v-3.35l-10.89-6.282zm26.81-4.607h-2.93v5.863s0 .419-.42.419l-10.47 5.863v2.931c2.09-.419 3.77-1.256 5.44-2.094 4.61-2.931 7.55-7.538 8.38-12.982zm34.36 6.7h-17.59c.41 4.607 4.19 7.957 8.79 7.957 4.61 0 8.38-3.35 8.8-7.957zm-162.57.838h-2.1v5.863h-.42c0 .419 0 .419.42.419 0 0 .42.419.84.419s.42 0 .84-.419c0 0 .42-.419.42-.838v-1.256h-.42v-3.769s0-.419-.42-.419zm74.58-8.795h-7.12v15.496h7.12zm-159.22 10.47-1.26 1.257v3.35l1.26-1.256zm49.86-42.297h-10.48c-16.011 1.98-30.081 12.698-35.485 28.067-.81 2.301-1.2 4.729-1.8 7.093l-.048.361-.315 2.856-.062.989v6.282h5.03c-.42-3.351 0-6.701.42-10.051 3.35-18.008 18.85-30.991 36.87-30.991 1.68 0 3.77 0 5.87.419zm130.73 17.17h-15.92v12.982h5.45c.41 0 .83.419.83.838s-.42.837-.83.837h-5.45v11.727h11.73c1.68 0 2.93.418 4.19 1.256v-7.119h-2.93c-.42 0-.84-.419-.84-.838v-3.769h-1.26c-.428-.028-.725-.347-.819-.748-.026-.043-.014-.015-.021-.09 0-.418.42-.837.84-.837h1.26v-3.769c0-.419.42-.838.84-.838h2.93zm-89.67 24.29h-.84v2.094h.84zm116.91-7.957h-.42c0 4.188-3.77 7.538-8.38 8.375v1.257l8.8-5.026zm-978.346 5.61h-74.577c.893.447 1.34.893 2.233 1.34 2.679 1.787 4.912 2.681 7.592 2.681h64.752zm76.364 0h-74.577v4.021h64.753c2.679 0 4.912-.894 7.145-2.234l.446-.447c.447-.447 1.34-.893 2.233-1.34zm886.894 1.212 4.188 2.391v-.838c-1.572-.079-2.824-.872-4.188-1.553zm-1196.814-6.126h-4.466v8.488h4.466zm1004.482 2.235-1.67 1.675v3.351l1.26-1.257v-1.256c0-.838 0-1.675.41-2.513zm187.72-3.35h-.42v4.607h.42l4.144 2.366c-2.344-1.801-3.437-4.205-4.144-6.973zm9.22 0h-6.7c.42 3.35 3.35 6.282 6.7 6.7zm-56.15 2.094v4.606h2.1zm9.22-1.675s-.42.418-.84.418h-7.12l3.35 5.863h4.61zm55.31-.419h-6.7v6.7c3.35-.418 6.28-3.35 6.7-6.7zm-894.523-27.923h-79.936v6.254h66.539c8.038 0 14.737 5.808 16.523 13.402.447.447.447.447.447.894v11.615c3.126 0 5.805.893 8.038 2.234v-22.784c0-6.255-4.912-11.615-11.611-11.615zm-81.723.446h-79.936c-6.252 0-11.611 5.361-11.611 11.616v22.337c2.68-1.341 5.359-2.234 8.039-2.234v-12.509h.446c1.787-7.594 8.485-12.955 16.523-12.955h66.539zm1009.265 1.69c-10.614.037-20.312 4.032-29.249 9.454 1.26 1.256 2.1 2.513 2.94 3.769 2.09 3.351 2.93 7.12 2.93 10.889h1.67c.42 0 .84.419.84.837 0 .419-.42.838-.84.838h-1.67c-.638 3.4-.166 1.564-1.579 5.464.73-.864.303-.644 1.159-.857h3.35c.42-10.889 9.64-19.265 20.53-19.265 21.413-7.251 15.511-9.387 9.374-10.421-2.407-.405-4.859-.471-7.288-.706zm-.339 22.437c-4.6 0-8.38 3.769-8.79 7.957h17.59c-.42-4.607-4.19-7.957-8.8-7.957zm0-3.351c-6.28 0-11.73 5.026-12.15 11.308h1.26c.42-5.445 5.03-10.051 10.89-10.051 5.87 0 10.48 4.606 10.9 10.051h1.26c-.42-6.282-5.87-11.308-12.16-11.308zm0-6.282c-9.63 0-18.01 7.957-18.43 17.59h4.61c.42-7.12 6.7-12.983 13.82-12.983 7.55 0 13.41 5.863 13.83 12.983 4.19-9.633-4.19-17.59-13.83-17.59zm-940.153-6.452h-66.54v9.381c13.844.447 27.241 5.361 37.959 14.296h43.317v-8.488c0-8.041-6.698-14.743-14.736-15.189zm-68.773 0h-66.539c-8.485 0-15.183 6.701-15.183 15.189v8.488h43.764c10.718-8.935 24.115-14.296 37.958-14.296zm0 11.168c-12.503.447-25.007 4.914-34.832 12.062h34.832zm1.787 0v12.062h34.832c-10.271-7.594-22.328-12.062-34.832-12.062zm955.189 8.267h-7.55v2.513h7.55zm-183.95-4.607-2.51 2.513c-.42 1.675-.84 2.931-.84 4.188l2.09-2.094c.42-1.675.84-2.932 1.26-4.607zm-1006.582-14.828h-4.466v19.21h4.466zm1201.422 10.64c-3.77.838-6.28 3.351-6.7 6.701h6.7zm2.1-2.931v1.256c4.19.419 7.96 4.188 8.38 8.376l.42-4.607zm-12.99 7.119h-7.55v2.513h7.55zm10.47-7.538-8.8 5.025v5.026c.84-4.607 4.61-7.957 8.8-8.795zm2.1 3.35v6.701h6.7c-.42-3.35-3.35-6.282-6.7-6.701zm7.96-7.119h-7.96v1.675l10.89 6.282v5.863h2.93c0-3.35-.83-6.701-2.51-9.632-.84-1.257-2.09-2.513-2.93-3.769zm-47.77 0h-7.12v12.982h7.12zm3.77 0h-1.67v12.982h1.67zm-12.57 5.444h-4.61l-3.35 5.863h7.12c.42 0 .42 0 .84.419zm-143.72-3.769-2.93 2.932-1.26 1.675c-.84 1.256-1.26 2.931-1.68 4.606l2.52-2.512c.84-2.513 2.09-4.607 3.35-6.701zm213.7-131.919h-112.72c-10.89.001-21.37 5.026-28.49 13.402l-65.79 105.535c7.97-6.701 17.6-10.47 28.08-10.889h346.94l42.74-70.357c0-20.52-16.76-37.69-37.71-37.69l-171.38-.001v5.445h-.84c-.41 0-.83-.419-.83-.838zm-23.47 130.663h-14.24v9.213h3.35v-1.256s0-.419.42-.419l10.47-5.863zm-53.63 4.606h-2.1v4.607zm-1139.781-8.1h-5.805v8.489l5.805-3.128zm31.707-.446h-1.34v1.787c-.085.7-.798 1.03-1.34 1.34l.894.447c0 .893.893 1.34 1.786 1.34zm-3.573 0h-26.347v3.127h27.24c-.777-.849-.497-.391-.893-1.34zm1272.021-13.108-41.694-.355c15.529 12.974 16.169 12.911 16.57 12.817.043-.026.015-.014.089-.021h.001c23.88-.838 26.4-6.701 26.4-12.564zm-1583.281-30.226h-18.309v45.567h37.958v-23.23h-18.756c-.446 0-.893-.447-.893-1.34zm-20.095 0h-18.31v45.567h18.31zm1559.582 30.103h-75.1c-1.68 6.701-6.28 12.145-12.57 15.077h25.14v-2.094c0-.419.42-.419.42-.419l.195.052.225-.052c.42 0 .84.419.84.838v1.256h9.22c9.21-6.282 20.11-9.632 31-9.632 8.27-.078 16.208 2.221 23.764 5.391-1.094-1.95-2.002-3.914-2.312-6.169-.434-1.437-.443-2.798-.502-4.248zm-76.78 0h-39.38c2.51 8.795 10.47 15.077 19.69 15.077h.84c1.26 0 2.51 0 3.35-.419 7.54-1.675 13.41-7.119 15.5-14.658zm-165.09 4.607c-3.77 2.513-6.7 5.444-9.22 8.376l-.83 1.675zm-1022.082-12.373h-4.466v19.21h4.466zm1.786 10.722v8.488h5.805v-5.361zm37.554 3.392c-1.141.359-.71.095-1.382.628-.446 0-.446.447-.446.447 0 .447-.447.894-.894.894h-26.794v3.127h26.348v-1.787c0-.447.446-.894.893-.894s.893.447.893.894v1.787h1.786v-4.914zm998.064.641c-.439.097-.148.019-.847.309zm-4.002-8.245c-2.1.838-3.77 1.675-5.87 2.513l-2.93 2.931c2.09-1.256 4.19-2.512 6.7-3.35zm7.54-1.675c-1.26 0-2.93.419-4.19.837l-1.68 1.676c1.68-.419 2.94-.838 4.61-1.257zm12.15-.419h-3.35l-1.26 1.256h3.35zm5.45 0h-3.35l-1.26 1.256h3.35zm5.86 0h-3.35l-1.26 1.256h3.36zm-16.76 0h-3.77l-1.26 1.256h3.78zm22.63 0h-3.35l-1.26 1.256h3.35zm5.45 0h-3.36l-1.25 1.256h3.35zm5.86 0h-3.35l-1.26 1.256h3.36zm5.87 0h-3.35l-1.26 1.256h3.35zm5.87 0h-3.36l-1.25 1.256h3.35zm5.44 0h-3.35l-1.26 1.256h3.36zm5.87 0h-3.35l-1.26 1.256h3.35zm5.87 0h-3.36l-1.25 1.256h3.35zm5.86 0h-3.35l-1.26 1.256h3.35zm5.45 0h-3.35l-1.26 1.256h3.35zm5.86 0h-3.35l-1.25 1.256h3.35zm5.87 0h-3.35l-1.26 1.256h3.35zm5.87 0h-3.36l-1.25 1.256h3.35zm5.44 0h-3.35l-1.25 1.256h3.35zm5.87 0h-3.35l-1.26 1.256h3.35zm5.87 0h-3.36l-1.25 1.256h3.35zm5.86 0h-3.35l-1.26 1.256h3.36zm5.45 0h-3.35l-1.26 1.256h3.35zm5.87 0h-3.36l-1.25 1.256h3.35zm5.86 0h-3.35l-1.26 1.256h3.36zm5.87 0h-3.35l-1.26 1.256h3.35zm5.45 0h-3.36l-1.25 1.256h3.35zm5.86 0h-3.35l-1.26 1.256h3.35zm5.87 0h-3.35l-1.26 1.256h3.35zm5.86 0h-3.35l-1.25 1.256h3.35zm5.45 0h-3.35l-1.26 1.256h3.35zm5.87 0h-3.35l-1.26 1.256h3.35zm5.86 0h-3.35l-1.26 1.256h3.36zm5.87 0h-3.35l-1.26 1.256h3.35zm5.45 0h-3.35l-1.26 1.256h3.35zm5.86 0h-3.35l-1.26 1.256h3.36zm5.87 0h-3.35l-1.26 1.256h3.35zm5.87 0h-3.36l-1.25 1.256h3.35zm5.44 0h-3.35l-1.26 1.256h3.36zm5.87.355-3.35-.355-1.26 1.256h3.35zm5.87-.355h-3.36l-2.296 1.611 4.396-.355zm5.44 0h-3.35l-1.26 1.256h3.36zm5.87 0h-3.35l-1.26 1.256h3.35zm5.87 0h-3.36l-1.25 1.256h3.35zm5.86 0h-3.35l-1.26 1.256h3.35zm5.45 0h-3.35l-1.26 1.256h3.35zm5.86 0h-3.35l-1.25 1.256h3.35zm5.87 0h-3.35l-1.26 1.256h3.35zm5.87 0h-3.36l-1.25 1.256h3.35zm5.44 0h-3.35l-1.25 1.256h3.35zm5.87 0h-3.35l-1.26 1.256h3.35zm5.87 0h-3.36l-1.25 1.256h3.35zm5.86 0h-3.35l-1.26 1.256h3.36zm5.45 0h-3.35l-1.26 1.256h3.35zm5.87 0h-3.36l-.824 1.852 2.924-.596zm-1352.272-14.691h-4.466v8.488h4.466zm-124.594-12.956h-1.34v6.701h6.252v-1.787c0-2.68-2.232-4.914-4.912-4.914zm-63.413 0h-61.18c-2.68 0-4.913 2.234-4.913 4.914l.001 1.787h66.092zm60.287 0h-58.054v6.701h58.054zm61.627-58.076h-26.348c-2.679 0-4.912 2.234-4.912 4.914v35.739c0 4.021-3.126 7.148-7.145 7.148h-6.252c-.447 0-.893.447-.893.894v15.636h45.55v-17.87h-27.241c-.446 0-.893-.447-.893-.893 0-.447.447-.894.893-.894h27.241zm27.687.446h-26.347v44.675h27.241c.446 0 .893.447.893.893 0 .447-.447.894-.893.894h-27.241v17.423h45.55v-15.636c0-.447-.447-.894-.893-.894h-6.252c-4.019 0-7.145-3.127-7.145-6.701v-35.74c0-2.68-2.233-4.913-4.913-4.913zm-238.915 53.61h-16.523v2.68h16.523zm-18.309 0h-16.524v2.68h16.524zm132.184-33.06h-22.328v25.465h18.309c.447 0 .893.894.893 1.34 0 .447-.446.894-.893.894h-18.309v7.594h46.89c-.893-4.02-4.019-6.254-8.038-6.254h-6.252c-2.68 0-4.913-2.234-5.359-5.361v-18.763c0-2.681-2.233-4.914-4.913-4.914zm-24.561.447h-22.775c-2.68 0-4.912 2.234-4.912 4.915v18.763c0 2.68-2.233 4.914-4.913 4.914h-6.251c-3.573-.447-7.146 2.234-8.039 5.808h46.89v-7.595h-20.096c-.446 0-.893-.447-.893-.893 0-.447.447-.894.893-.894h20.096zm-83.955 25.018h-21.882v5.808h21.882zm-23.668-.447h-21.882v5.808h21.882zm129.505-53.609h-19.649v26.358h19.649zm-21.882 0h-19.649v26.358h19.649zm121.467-11.169h-12.057v11.616c0 2.234-.893 4.021-2.233 5.361h14.29zm13.844 0h-12.057v16.977h14.29c-1.34-1.34-2.233-3.127-2.233-5.361zm-108.07 2.234h-25.008v7.148h25.008zm-27.241 0h-24.561v7.148h24.561zm22.775-4.914h-20.542v2.68h23.222zm-22.775 0h-20.542l-2.68 2.68h23.222zm132.185-1.34h-8.931v1.787h10.717zm-10.718 0h-8.931l-1.786 1.787h10.717zm1291.012-12.942h-29.75v9.632h29.75zm31.42 0h-29.75v9.632h29.75zm-31.84-3.769h-28.08l-.83 1.675h28.91zm30.17 0h-28.08v1.675h28.91zm-29.75-4.188h-28.08v2.513h28.08zm29.75 0h-28.08v2.513h28.08zm-29.75-19.683h-28.08v17.589h28.08zm29.75 0h-28.08v17.589h28.08z" fill="#c5cae9"/></svg>