<svg fill="none" height="40" viewBox="0 0 40 40" width="40" xmlns="http://www.w3.org/2000/svg"><path d="m25.7248 0c-5.0517 0-9.4933 2.63569-12.0314 6.61364-3.319 4.39286-6.10117 9.20056-9.05412 13.86176-.26845.4393-.63452 1.0006-.09762 1.4399s1.00059-.0244 1.43987-.2928c1.22023-.7566 2.39165-1.5619 3.61188-2.2941.51249-.3172 1.09819-.6101 1.63509-.0732.5125.5125.2929 1.0982 0 1.6351-.2196.4149-.4881.8054-.7321 1.2202-3.29464 5.2958-6.61366 10.5916-9.883873 15.8874-.31726.5125-.951779 1.147-.341664 1.7572.610114.6101 1.220227-.0732 1.732727-.3905 2.63569-1.6107 5.24698-3.2458 7.88267-4.8809 2.97734-1.8548 5.95474-3.7095 8.95644-5.5155.6102-.366 1.3179-.7809 1.9524-.122.6589.6833.0976 1.3423-.2928 1.928-.659 1.0494-1.3911 2.0744-2.05 3.1482-.2929.4881-.8786 1.025-.2929 1.5863.5613.5369 1.1226-.0244 1.5863-.3417 3.4899-2.2452 7.0041-4.466 10.4696-6.7845 1.3178-.9029 2.7577-1.6839 4.0267-2.6601l.0732-.0732c.1221-.0976.2685-.1952.3905-.2928 3.2214-2.6113 5.2714-6.6137 5.2714-11.0797.0244-7.8827-6.3696-14.2767-14.2523-14.2767zm7.7607 20.451c0 .1465-.0488.2685-.1464.3661-.0977.0976-.2197.1464-.3661.1464h-2.1476c-.1464 0-.2685-.0488-.3661-.1464s-.1464-.2196-.1464-.3661v-1.4886c-.5369.7565-1.2446 1.3422-2.0988 1.7327s-1.8547.5857-2.953.5857c-2.1232 0-3.9047-.7077-5.2957-2.1476-1.4399-1.4399-2.1476-3.2458-2.1476-5.4178 0-2.1232.7565-3.92916 2.2452-5.39344 1.4887-1.46427 3.3434-2.19641 5.5154-2.19641 1.6839 0 3.1238.34166 4.344 1.0494 1.2202.70773 2.1232 1.70832 2.7089 3.00175.122.2685.122.4881.0244.6589-.0976.1709-.3172.2685-.6345.3173l-2.3184.4149c-.1953.0488-.3661.0244-.4881 0-.1464-.0488-.2685-.1709-.4393-.3661-.3905-.5125-.8542-.903-1.3911-1.1714-.5369-.26847-1.0982-.41489-1.7083-.41489-1.147 0-2.0744.39049-2.8309 1.17139-.7321.781-1.1226 1.7572-1.1226 2.953 0 1.2202.3905 2.1964 1.147 2.9773.7565.781 1.7083 1.1471 2.8065 1.1471.6589 0 1.2691-.1221 1.7816-.3661.5369-.2441.9761-.6101 1.3422-1.0982h-2.05c-.1464 0-.2684-.0488-.366-.1464-.0977-.0977-.1465-.2197-.1465-.3661v-1.9524c0-.1464.0488-.2684.1465-.3661.0976-.0976.2196-.1464.366-.1464h6.1988c.1464 0 .2684.0488.3661.1464.0976.0977.1464.2197.1464.3661v6.516z" fill="#fff"/></svg>