<svg fill="none" height="56" viewBox="0 0 155 56" width="155" xmlns="http://www.w3.org/2000/svg"><path d="m48.4803 52.4246 6.7621-15.794h-.0191c.2292-.5053.4393-1.0293.6113-1.5532 1.7191-4.8655 1.8337-9.9929.4011-14.8397l-4.2979-16.33669c-.0764-.39298-.2102-.76724-.4012-1.14151-.4011-.78596-.9933-1.45964-1.7382-1.946183-1.1271-.7298183-2.5215-.973091-3.8395-.711105l-16.4659 2.414018c-2.9226.2807-5.7878 1.04794-8.5003 2.33916-2.6552 1.2725-5.0238 2.93799-7.0104 4.94031l-12.12971 11.3028c-.30563.2433-.59215.524-.82138.8234-.553952.6924-.897786 1.5345-.9932954 2.3953-.1719166 1.3474.2483244 2.676 1.1079054 3.7053l10.94538 14.0724v-.0188c1.681 2.1334 3.7058 3.986 5.998 5.483 2.0057 1.2913 4.1642 2.2831 6.3991 2.9567l-.0191.0187 17.4019 5.1649c.5157.1872 1.0506.2994 1.6236.2994.8978.0187 1.7956-.1871 2.5788-.6175 1.1843-.6175 2.0439-1.7029 2.4068-2.9567zm-2.2922-49.21598c.6304-.29941 1.3753-.22456 1.9102.13099.2865.18714.5157.43041.6685.74853.4585.93567.0765 2.07718-.8977 2.5263-.5922.2807-1.2417.22456-1.7765-.05614-.0382-.03743-.0764-.05614-.1337-.09357-.0382-.01871-.0764-.05614-.1146-.07485-.2293-.16842-.4203-.39298-.554-.65496-.4775-.93567-.0764-2.05847.8978-2.5263zm-42.71184 20.56588c.64946-.8234 1.87198-.9918 2.71247-.3555.51575.393.76407.9731.74497 1.5719 0 .0749 0 .1497-.0191.2246-.03821.2994-.17192.5988-.36294.8608-.64946.8234-1.87198.9918-2.71247.3555-.57305-.4304-.82138-1.0853-.74497-1.7403.0382-.3181.17192-.6363.38204-.917zm10.79254 11.7146c-4.77545-9.6187-.6876-21.1835 9.1307-25.86182 6.5138-3.10641 13.9444-2.37659 19.5795 1.27252 2.8462 1.8526 5.2339 4.435 6.8385 7.6537 4.7754 9.6187.6876 21.1835-9.1308 25.8618-6.5137 3.1064-13.9443 2.3766-19.5794-1.2725-2.8462-1.8526-5.2339-4.4351-6.8385-7.6537zm30.3147 17.2536c-.2865.1684-.6303.2433-.9933.2433-1.0697-.0187-1.9102-.8982-1.8911-1.9462.0192-.6924.4203-1.2912.9934-1.6093.2865-.1684.6303-.2433.9932-.2433 1.0698.0187 1.9102.8982 1.8911 1.9462-.0191.6924-.4202 1.2912-.9933 1.6093zm32.9508-17.4969v-7.6725c0-5.0526-2.9608-7.8408-8.3475-7.8408-4.7755 0-7.8127 2.3391-7.9273 2.4327l-.191.1497 2.063 3.7988.2674-.1871c.0191-.0187 2.5788-1.7965 5.3676-1.7965 2.1968 0 3.3238 1.0105 3.3238 3.0315v.3556h-.936c-1.49 0-4.3362.131-6.7812 1.0479-2.999 1.1228-4.508 3.0316-4.508 5.6889 0 1.9087.7258 3.4994 2.1012 4.6035 1.2034.973 2.8653 1.5157 4.6799 1.5157 3.1709 0 5.0047-1.759 5.8452-2.9005v.1497c0 1.4409 1.0315 2.3017 2.7889 2.3017h4.8901v-4.1356h-2.063c-.4012 0-.5731-.1684-.5731-.5427zm-9.6465.9918c-1.7573 0-2.5596-1.1789-2.5596-2.3579 0-.8795.6113-2.9193 6.2845-2.9193h.5158v.3556c0 2.3204-1.8147 4.9216-4.2407 4.9216zm29.9136-1.9836c0 3.7052-3.3428 6.1005-8.5385 6.1005-3.9923 0-8.2329-1.7216-8.2329-4.9029v-2.5075h4.7181v1.4034c0 1.179 1.8338 1.703 3.553 1.703 1.4708 0 3.0563-.4492 3.0563-1.6655 0-1.1603-1.0888-1.5907-3.3237-2.3766-.3057-.1123-.6113-.2059-.936-.3369-2.3687-.8046-6.361-2.1707-6.361-6.2128 0-4.2666 4.3171-5.7637 8.0037-5.7637 2.9608 0 7.3543 1.1415 7.3543 4.2667v2.7321h-4.7564v-1.3661c0-.7859-1.0124-1.2912-2.5979-1.2912-.5921 0-2.5596.1123-2.5596 1.4409 0 1.3474 1.7 1.9462 3.8968 2.5825 2.8461.9169 6.7238 2.1333 6.7238 6.1941zm21.1266 1.5345h1.395v4.1356h-3.935c-1.643 0-2.465-.2433-3.324-1.7965l-3.534-6.0444c-.306-.5239-.764-.5801-1.433-.5801h-.859v4.2854h2.12v4.1356h-10.3914v-4.1356h2.8274v-18.994h-3.0375v-4.1357h8.4815v14.7835h2.158l2.694-3.1251h-1.93v-4.1356h9.972v4.1356h-2.675l-3.992 4.6222c.344.2433.86.7485 1.356 1.5719l2.77 4.7345c.229.4304.439.5427 1.337.5427zm12.244-16.056c-6.017 0-10.219 4.2479-10.219 10.311 0 5.9882 4.546 10.311 10.812 10.311 4.966 0 7.965-2.6386 8.099-2.7508l.172-.1497-2.159-3.8737-.267.2246c-.019.0187-2.445 1.9649-5.502 1.9649-3.018 0-5.176-1.8714-5.558-4.7719h13.486l.019-.2433c0-.0374.114-1.0667.114-1.6468 0-2.6198-.821-4.9777-2.311-6.6432-1.604-1.7778-3.916-2.7321-6.686-2.7321zm-.114 4.2479c1.948 0 3.324 1.4596 3.495 3.6491h-7.87c.535-2.2643 2.197-3.6491 4.375-3.6491zm23.209 15.9624-.23.0375c-.019 0-.649.1122-1.547.1122-1.452 0-3.534-.2058-5.272-1.235-2.12-1.2538-3.19-3.3497-3.19-6.269v-8.2713h-2.999v-4.1356h3.152v-5.221h5.291v5.221h4.451v4.1356h-4.451v7.8035c0 2.9941 2.273 3.4432 3.629 3.4432.516 0 .841-.0374.86-.0374l.325-.0374zm-110.6195-.1684-5.2339.0561-.0191-1.5532c-1.2416.8421-3.4956 2.0024-6.6474 2.0398-.0573 0-.1147 0-.172 0-7.3351 0-12.9319-5.6889-13.0083-13.3052-.0574-3.6303 1.2798-7.0175 3.763-9.525 2.4833-2.5263 5.9407-3.9485 9.7229-3.986h.2292c6.2272 0 9.5128 3.069 9.6656 3.2l.4011.3743-2.9417 4.4537-.573-.5052c-.0191-.0187-2.5406-2.1333-6.1699-2.1333-.0382 0-.0765 0-.1147 0-4.8518.0561-7.9463 3.1625-7.889 7.9157.0573 4.7719 3.2473 8.0841 7.7744 8.0841h.1146c2.9035-.0374 5.0047-1.7216 5.616-2.2643l-.0191-1.9462-3.8586.0375-.0573-5.1649 9.3217-.1123z" fill="#303f9f"/></svg>